<svg width="64" height="64" viewBox="0 0 64 64" fill="none" xmlns="http://www.w3.org/2000/svg">
<g clip-path="url(#clip0_11_154)">
<path d="M61.7105 44.9694C59.1938 40.7914 56.698 36.6134 54.2022 32.4146C50.9993 27.031 47.7755 21.6682 44.5726 16.2846C42.9503 13.5408 41.3696 10.7763 39.6434 8.11564C37.5011 4.81065 33.8822 3.45956 30.0137 4.22864C27.2059 4.76908 25.2093 6.49433 23.795 8.90551C20.592 14.3307 17.3267 19.7351 14.1029 25.1602C10.38 31.3961 6.65712 37.6527 2.91341 43.8885C2.06067 45.3227 1.18714 46.757 1.02075 48.4614C1.02075 49.3552 1.02075 50.2283 1.02075 51.1221C1.14554 52.4939 1.60311 53.7411 2.37265 54.8843C4.16131 57.5034 6.59472 59.0208 9.81847 59.0208C24.6061 59.0416 39.4146 59.0208 54.2022 59.0208C54.5766 59.0208 54.9718 59.0208 55.3461 58.9584C59.7554 58.2725 62.7712 54.5102 63 50.8311C63.1039 48.7317 62.8128 46.7778 61.7105 44.9694ZM28.329 19.0699C28.329 16.9705 29.8889 15.3284 31.9272 15.3284C33.9862 15.3076 35.5877 16.9497 35.5877 19.0699C35.5877 21.4395 35.5877 23.8299 35.5877 26.1995C35.5877 28.5692 35.5877 30.9596 35.5877 33.3292C35.5877 35.4909 34.0278 37.0915 31.948 37.0915C29.8681 37.0915 28.329 35.4909 28.329 33.3292C28.329 28.5692 28.329 23.8299 28.329 19.0699ZM31.948 51.6209C28.9322 51.6001 26.5196 49.1682 26.5196 46.1542C26.5196 43.1818 28.9738 40.7498 31.948 40.729C34.9637 40.7082 37.4179 43.2026 37.3971 46.2373C37.3763 49.2305 34.9429 51.6417 31.948 51.6209Z" fill="#CCCCCC"/>
</g>
<defs>
<clipPath id="clip0_11_154">
<rect width="62" height="55" fill="white" transform="translate(1 4)"/>
</clipPath>
</defs>
</svg>
