<svg width="22" height="22" viewBox="0 0 22 22" fill="none" xmlns="http://www.w3.org/2000/svg">
<path d="M16.25 8.33331C16.25 7.07353 15.7496 5.86535 14.8588 4.97456C13.968 4.08376 12.7598 3.58331 11.5 3.58331C10.2402 3.58331 9.03204 4.08376 8.14124 4.97456C7.25045 5.86535 6.75 7.07353 6.75 8.33331C6.75 13.875 4.375 15.4583 4.375 15.4583H18.625C18.625 15.4583 16.25 13.875 16.25 8.33331Z" fill="#FFCD41" fill-opacity="0.22" stroke="#FFCD41" stroke-linecap="round" stroke-linejoin="round"/>
<path d="M12.8696 18.625C12.7304 18.8649 12.5306 19.0641 12.2903 19.2025C12.0499 19.341 11.7774 19.4139 11.5 19.4139C11.2226 19.4139 10.9501 19.341 10.7098 19.2025C10.4694 19.0641 10.2696 18.8649 10.1304 18.625" stroke="#FFCD41" stroke-linecap="round" stroke-linejoin="round"/>
</svg>
