<svg width="32" height="32" viewBox="0 0 32 32" fill="none" xmlns="http://www.w3.org/2000/svg">
<path d="M12.4687 24C12.9347 24 13.3125 23.6307 13.3125 23.1752C13.3125 22.7196 12.9347 22.3503 12.4687 22.3503C12.0028 22.3503 11.625 22.7196 11.625 23.1752C11.625 23.6307 12.0028 24 12.4687 24Z" fill="#828282"/>
<path d="M20.9062 24C21.3722 24 21.75 23.6307 21.75 23.1752C21.75 22.7196 21.3722 22.3503 20.9062 22.3503C20.4403 22.3503 20.0625 22.7196 20.0625 23.1752C20.0625 23.6307 20.4403 24 20.9062 24Z" fill="#828282"/>
<path d="M6 8H9.27271L11.4654 18.6969C11.5402 19.0647 11.7452 19.3951 12.0443 19.6302C12.3435 19.8654 12.7178 19.9903 13.1018 19.9831H21.0545C21.4385 19.9903 21.8128 19.8654 22.1119 19.6302C22.4111 19.3951 22.616 19.0647 22.6908 18.6969L23.9999 11.9944H10.0909" stroke="#828282" stroke-linecap="round" stroke-linejoin="round"/>
</svg>
