<svg id="Layer_1" data-name="Layer 1" xmlns="http://www.w3.org/2000/svg" viewBox="0 0 24 24"><path d="M15.53,8l.21,0a.88.88,0,0,1,.69.73,1.1,1.1,0,0,1,0,.25c0,1.59,0,3.19,0,4.78a.91.91,0,0,1-.66,1,1.58,1.58,0,0,1-.38,0H8.73a.93.93,0,0,1-1-1.05V9a.93.93,0,0,1,1-1h5.33a13.63,13.63,0,0,0-.13-1.72,1.87,1.87,0,0,0-1.71-1.38,1.85,1.85,0,0,0-1.81,1.06,3.37,3.37,0,0,0-.23.84c0,.33-.11.41-.45.42H9c-.25,0-.35-.11-.35-.36a3.41,3.41,0,0,1,6.48-1.51A3.79,3.79,0,0,1,15.53,7Zm-3.85,4.38c0,.16,0,.32,0,.48a.42.42,0,0,0,.42.47c.26,0,.41-.17.42-.47s0-.6,0-.9a.5.5,0,0,1,.17-.41.85.85,0,0,0-1.16-1.23.8.8,0,0,0-.07,1.17.74.74,0,0,1,.22.62A2.43,2.43,0,0,0,11.68,12.33Z" style="fill:#4f28d9"/><path d="M9.61,16.53c.25-.14.47-.29.7-.39a.42.42,0,0,1,.33,0,.34.34,0,0,1,.07.29c0,.07-.1.14-.17.19L9.9,17l.63.37c.2.12.26.27.17.43s-.25.17-.45.06l-.64-.37v.77a.28.28,0,0,1-.18.31.28.28,0,0,1-.37-.28c0-.25,0-.5,0-.8l-.48.28a1.83,1.83,0,0,1-.24.13.28.28,0,0,1-.27-.48c.19-.12.38-.22.57-.33L8.77,17l-.69-.41A.28.28,0,0,1,8,16.23a.26.26,0,0,1,.35-.11.91.91,0,0,1,.17.09l.57.32V15.8c0-.08,0-.19.06-.23a.38.38,0,0,1,.28-.11.24.24,0,0,1,.21.26Z" style="fill:#4f28d9"/><path d="M14.38,17.51l-.67.39c-.19.1-.38.05-.43-.13a.28.28,0,0,1,.15-.35l.67-.4-.6-.35a.66.66,0,0,1-.17-.12.26.26,0,0,1,0-.35.25.25,0,0,1,.34-.08l.72.41v-.45c0-.13,0-.26,0-.39a.27.27,0,0,1,.54,0c0,.19,0,.37,0,.56v.28c.24-.14.45-.27.67-.38s.39,0,.44.13a.3.3,0,0,1-.17.36l-.65.38.63.38c.19.11.25.28.16.43s-.25.16-.44.05-.41-.23-.64-.37v.75c0,.23-.11.34-.28.34s-.27-.12-.28-.34Z" style="fill:#4f28d9"/><path d="M9.32,20.65H7.82c-.3,0-.36,0-.36-.35,0-.57,0-.57.57-.57h2.81c.32,0,.37.05.37.36,0,.56,0,.56-.56.56Z" style="fill:#4f28d9"/><path d="M14.68,20.65H13.1c-.25,0-.31-.06-.31-.3,0-.62,0-.62.6-.62h2.79c.3,0,.36.06.36.36,0,.56,0,.56-.56.56Z" style="fill:#4f28d9"/><path d="M11.68,12.33a2.43,2.43,0,0,1,0-.27.74.74,0,0,0-.22-.62.8.8,0,0,1,.07-1.17.85.85,0,0,1,1.16,1.23.5.5,0,0,0-.17.41q0,.45,0,.9c0,.3-.16.46-.42.47a.42.42,0,0,1-.42-.47C11.67,12.65,11.68,12.49,11.68,12.33Z" style="fill:#fff"/><path d="M23.06,12A11,11,0,0,0,12,1" style="fill:none;stroke:#4f28d9;stroke-miterlimit:10;stroke-width:0.4789641718160214px"/><path d="M12,23A11,11,0,0,1,1,12" style="fill:none;stroke:#4f28d9;stroke-linecap:round;stroke-linejoin:round;stroke-width:0.4789641718160214px"/><path d="M23.06,12l-.94-.71" style="fill:none;stroke:#4f28d9;stroke-linecap:round;stroke-linejoin:round;stroke-width:0.4789641718160214px"/><path d="M1.91,12.69,1,12" style="fill:none;stroke:#4f28d9;stroke-linecap:round;stroke-linejoin:round;stroke-width:0.4789641718160214px"/><path d="M23.06,12l.73-.84" style="fill:none;stroke:#4f28d9;stroke-linecap:round;stroke-linejoin:round;stroke-width:0.4789641718160214px"/><path d="M.21,12.83.94,12" style="fill:none;stroke:#4f28d9;stroke-linecap:round;stroke-linejoin:round;stroke-width:0.4789641718160214px"/><path d="M23.07,12a11,11,0,0,0-11-11" style="fill:none;stroke:#4f28d9;stroke-linecap:round;stroke-linejoin:round;stroke-width:0.4789641718160214px"/><path d="M15.39,22.51c.24-.07.47-.16.7-.25" style="fill:none;stroke:#4f28d9;stroke-linecap:round;stroke-linejoin:round;stroke-width:0.4789641718160214px"/><path d="M17.35,21.66A11,11,0,0,0,22.3,16" style="fill:none;stroke:#4f28d9;stroke-linecap:round;stroke-linejoin:round;stroke-width:0.4789641718160214px;stroke-dasharray:1.3946750164031982,1.3946750164031982"/><path d="M22.53,15.33c.08-.23.14-.47.2-.72" style="fill:none;stroke:#4f28d9;stroke-linecap:round;stroke-linejoin:round;stroke-width:0.4789641718160214px"/><path d="M1.49,8.61c.07-.24.16-.47.25-.7" style="fill:none;stroke:#4f28d9;stroke-linecap:round;stroke-linejoin:round;stroke-width:0.4789641718160214px"/><path d="M2.34,6.65A11,11,0,0,1,8,1.7" style="fill:none;stroke:#4f28d9;stroke-linecap:round;stroke-linejoin:round;stroke-width:0.4789641718160214px;stroke-dasharray:1.3946750164031982,1.3946750164031982"/><path d="M8.67,1.47c.23-.08.47-.14.72-.2" style="fill:none;stroke:#4f28d9;stroke-linecap:round;stroke-linejoin:round;stroke-width:0.4789641718160214px"/></svg>