<svg width="26" height="26" viewBox="0 0 26 26" fill="none" xmlns="http://www.w3.org/2000/svg">
<circle cx="12.5667" cy="12.5667" r="12.5667" fill="#E1BB19"/>
<path d="M25.1337 13.432C25.1343 16.6098 23.9309 19.6697 21.7656 21.9955C19.6004 24.3214 16.6342 25.7404 13.4645 25.9666L14.8551 22.8276C12.7815 23.3301 10.6 23.1337 8.64955 22.2689C6.69907 21.4041 5.08882 19.9193 4.06897 18.0452L2.67839 21.1862C1.27155 19.3919 0.379422 17.2487 0.0975917 14.9861C-0.184239 12.7235 0.154839 10.4269 1.07852 8.34235C2.0022 6.25777 3.47565 4.4638 5.341 3.15266C7.20635 1.84152 9.39329 1.06261 11.6675 0.899414L10.275 4.04035C12.3484 3.53599 14.5303 3.73132 16.4812 4.59593C18.432 5.46055 20.0422 6.94593 21.0611 8.8208L22.4556 5.67792C24.1951 7.88782 25.1386 10.6197 25.1337 13.432Z" fill="#FBCD0A"/>
<path d="M21.1139 17.9486C20.4893 19.1185 19.6307 20.1474 18.5914 20.9712C17.5522 21.795 16.3545 22.3961 15.0729 22.7372C13.7913 23.0782 12.4533 23.1519 11.142 22.9536C9.83074 22.7554 8.57429 22.2894 7.45083 21.5847C6.32738 20.88 5.36095 19.9517 4.61169 18.8574C3.86242 17.7632 3.34633 16.5265 3.09555 15.2242C2.84476 13.922 2.86463 12.582 3.15393 11.2878C3.44322 9.99357 3.99575 8.7727 4.77714 7.70117C4.04442 9.09006 3.66251 10.6371 3.66469 12.2074C3.66469 12.291 3.66469 12.3747 3.66469 12.4563C3.66469 12.503 3.66469 12.5477 3.66469 12.5944C3.66469 12.6411 3.66469 12.7286 3.66469 12.7889C3.66469 12.8492 3.67443 12.9484 3.68221 13.0262C3.68221 13.0709 3.6822 13.1156 3.69581 13.1604C3.71137 13.3335 3.73275 13.5046 3.75804 13.6738C3.77943 13.8138 3.80471 13.9519 3.83194 14.0881C3.83194 14.1347 3.84945 14.1814 3.86112 14.23C3.87862 14.3156 3.89808 14.3992 3.91753 14.4829C3.91778 14.4874 3.91778 14.492 3.91753 14.4965C3.93503 14.5723 3.95447 14.6482 3.97586 14.7221L3.99338 14.7882C4.042 14.9613 4.0945 15.1305 4.1509 15.2997C4.2073 15.4689 4.27732 15.6556 4.34539 15.8307C4.3765 15.9123 4.41151 15.994 4.44652 16.0738C4.48153 16.1535 4.52626 16.2546 4.56905 16.3422C4.59433 16.3986 4.62351 16.455 4.65074 16.5094L4.68573 16.5794C4.68573 16.595 4.70129 16.6105 4.71102 16.6261C4.75186 16.7097 4.79466 16.7895 4.84133 16.8712C4.88801 16.9528 4.93468 17.0384 4.98525 17.122C5.03582 17.2057 5.11167 17.3321 5.17973 17.4352C5.2478 17.5382 5.29643 17.6121 5.35867 17.6997C5.3583 17.7042 5.3583 17.7087 5.35867 17.7133C5.41896 17.8008 5.48314 17.8883 5.55315 17.9739V17.9836C5.61734 18.0692 5.68152 18.1509 5.74764 18.2325C5.81377 18.3142 5.87406 18.3901 5.94213 18.4659C6.15908 18.7218 6.38953 18.9659 6.63253 19.1972C6.71033 19.273 6.79006 19.345 6.87175 19.417C6.93982 19.4773 7.0079 19.5375 7.07791 19.5939C7.14793 19.6503 7.2724 19.7534 7.36964 19.8312C7.46688 19.909 7.54273 19.9635 7.63219 20.0257C7.89813 20.219 8.17403 20.3981 8.45875 20.5625C8.5346 20.6072 8.61241 20.65 8.6902 20.6928C8.90025 20.8075 9.11806 20.9145 9.33783 21.0137C9.42924 21.0545 9.52065 21.0954 9.61206 21.1323L9.77737 21.1984C9.89017 21.2432 10.003 21.284 10.1177 21.3229C10.1741 21.3443 10.2325 21.3638 10.2889 21.3813C10.3881 21.4143 10.4833 21.4454 10.5884 21.4746C10.6934 21.5038 10.7828 21.531 10.882 21.5563L10.9287 21.568C11.0318 21.5933 11.1368 21.6185 11.2418 21.6399C11.3469 21.6613 11.4636 21.6866 11.5764 21.7061H11.5861L11.9128 21.7586C12.0139 21.7741 12.1073 21.7877 12.2181 21.7975L12.3096 21.8072C12.4049 21.8072 12.5041 21.8266 12.5994 21.8325C12.6947 21.8383 12.7938 21.8461 12.895 21.85H13.0331H13.2975H13.5582H13.7526C13.8285 21.85 13.9043 21.85 13.9802 21.8364C14.056 21.8227 14.1027 21.8364 14.163 21.8228L14.3808 21.8014L14.5753 21.778L14.7698 21.7508L14.9993 21.7138C15.114 21.6944 15.2288 21.6711 15.3416 21.6477C15.4349 21.6283 15.5361 21.6088 15.6178 21.5855L15.8939 21.5135C16.0767 21.463 16.2576 21.4066 16.4365 21.3463L16.703 21.249C16.878 21.1829 17.0511 21.1129 17.2223 21.037C17.3934 20.9612 17.5626 20.8795 17.7279 20.7939C17.8116 20.7511 17.8932 20.7084 17.9749 20.6617C18.1364 20.5742 18.2958 20.4808 18.4514 20.3816H18.4631L18.6867 20.2338L18.9162 20.0743C19.066 19.9674 19.2138 19.8565 19.3577 19.7398L19.5522 19.5803C19.9121 19.2765 20.2488 18.9463 20.5596 18.5923C20.6219 18.5223 20.6802 18.4523 20.7405 18.3804C20.8825 18.2423 21.005 18.0964 21.1139 17.9486Z" fill="#D96D00"/>
<path d="M22.232 13.4344C22.2355 15.0081 21.8514 16.5584 21.1137 17.9484C19.669 19.9179 17.5323 21.2676 15.1331 21.7261C12.734 22.1846 10.2502 21.718 8.181 20.4201C6.11181 19.1222 4.61059 17.0891 3.9791 14.7296C3.34761 12.3701 3.63264 9.85897 4.77691 7.70101C5.98425 6.06147 7.6785 4.84506 9.61799 4.22528C11.5575 3.6055 13.6432 3.61402 15.5775 4.24961C17.5119 4.8852 19.1961 6.1154 20.3901 7.76474C21.584 9.41409 22.2266 11.3983 22.2262 13.4344H22.232Z" fill="#F28500"/>
<path d="M22.4558 5.6729L21.0613 8.81578C20.0424 6.94091 18.4322 5.45553 16.4813 4.59091C14.5305 3.7263 12.3485 3.53097 10.2751 4.03533L11.6677 0.894394C11.9633 0.871056 12.2647 0.861335 12.5662 0.861335C14.4718 0.859351 16.3529 1.29163 18.0665 2.12535C19.7801 2.95906 21.2812 4.17229 22.4558 5.6729Z" fill="#FFDD50"/>
<path d="M14.852 22.8283L13.4614 25.9673C13.1658 25.9906 12.8644 26.0004 12.5629 26.0004C10.6574 26.0022 8.77645 25.5697 7.06313 24.7356C5.34981 23.9016 3.84919 22.6879 2.67529 21.1868L4.06587 18.0459C5.08572 19.92 6.69598 21.4048 8.64646 22.2696C10.5969 23.1344 12.7784 23.3308 14.852 22.8283Z" fill="#FFDD50"/>
<ellipse cx="9.24345" cy="11.4111" rx="3.17778" ry="3.32222" fill="#171C34"/>
<ellipse cx="9.24408" cy="11.411" rx="1.73333" ry="1.87778" fill="#FFCD41"/>
<ellipse cx="16.4668" cy="11.4111" rx="3.17778" ry="3.32222" fill="#171C34"/>
<ellipse cx="16.3233" cy="11.411" rx="1.87778" ry="1.87778" fill="#FFCD41"/>
</svg>
