<svg id="Layer_1" data-name="Layer 1" xmlns="http://www.w3.org/2000/svg" viewBox="0 0 24 24"><path d="M11.7,13.47a11.23,11.23,0,0,1,8.73,4.15,9.29,9.29,0,0,1,.7.95,13.09,13.09,0,0,1-18.86,0,9.29,9.29,0,0,1,.7-.95,11.21,11.21,0,0,1,8.73-4.15m0-1.41a12.66,12.66,0,0,0-9.82,4.66,13,13,0,0,0-1.36,2,14.51,14.51,0,0,0,22.36,0,12.53,12.53,0,0,0-1.36-2,12.63,12.63,0,0,0-9.82-4.66Z" style="fill:#4f28d9"/><path d="M11.7,1.41A3.58,3.58,0,1,1,8.12,5,3.59,3.59,0,0,1,11.7,1.41M11.7,0a5,5,0,1,0,5,5,5,5,0,0,0-5-5Z" style="fill:#4f28d9"/><path d="M22.51,5.87a1,1,0,0,0-.68.28L20.65,7.33,19.48,6.15a1,1,0,0,0-1.37,1.37l1.18,1.17L18.11,9.87a1,1,0,0,0,0,1.37,1,1,0,0,0,1.37,0l1.17-1.18,1.18,1.18a1,1,0,0,0,1.37,0,1,1,0,0,0,0-1.37L22,8.69,23.2,7.52a1,1,0,0,0,0-1.37,1,1,0,0,0-.69-.28Z" style="fill:#4f28d9"/></svg>