<svg width="250" height="103" viewBox="0 0 250 103" fill="none" xmlns="http://www.w3.org/2000/svg">
<path d="M127.295 67.1566C125.086 67.1566 123.301 65.3658 123.307 63.1566L123.325 56.8081C123.331 54.599 125.127 52.8081 127.336 52.8081H172.347C174.556 52.8081 176.341 54.599 176.335 56.8081L176.317 63.1566C176.311 65.3658 174.515 67.1566 172.306 67.1566H127.295Z" fill="#CCD1FF"/>
<path d="M82.2953 42.6118C80.0862 42.6118 78.3004 40.821 78.3068 38.6118L78.3096 37.6118C78.3159 35.4027 80.1119 33.6118 82.321 33.6118H127.331C129.54 33.6118 131.326 35.4027 131.32 37.6118L131.317 38.6118C131.311 40.821 129.515 42.6118 127.305 42.6118H82.2953Z" fill="#CCD1FF"/>
<path d="M68.2952 83.8082C66.0861 83.8082 64.3004 82.0173 64.3067 79.8082L64.3301 71.6118C64.3364 69.4027 66.1324 67.6118 68.3416 67.6118H122.627C124.836 67.6118 126.622 69.4027 126.615 71.6118L126.592 79.8082C126.586 82.0173 124.79 83.8082 122.581 83.8082H68.2952Z" fill="#FFCD41"/>
<path d="M169.406 40.8082C167.197 40.8082 165.411 39.0173 165.417 36.8082L165.441 28.6118C165.447 26.4027 167.243 24.6118 169.452 24.6118H179.627C181.836 24.6118 183.622 26.4027 183.616 28.6118L183.592 36.8082C183.586 39.0173 181.79 40.8082 179.581 40.8082H169.406Z" fill="#FFCD41"/>
<circle cx="125.295" cy="49.6118" r="30" fill="white"/>
<path d="M114.295 50.6118L122.295 58.6118L138.295 42.6118" stroke="#4D24E1" stroke-width="4" stroke-miterlimit="10" stroke-linecap="round" stroke-linejoin="round"/>
</svg>
