<svg width="60" height="60" viewBox="0 0 60 60" fill="none" xmlns="http://www.w3.org/2000/svg">
<path d="M55 51.667C55 55.3337 52 58.3337 48.3333 58.3337H11.6667C8 58.3337 5 55.3337 5 51.667V23.3337C5 19.667 8 16.667 11.6667 16.667H48.3333C52 16.667 55 19.667 55 23.3337V51.667Z" fill="#FFCD41"/>
<path d="M60 18.3337C60 22.0003 57 25.0003 53.3333 25.0003H6.66667C3 25.0003 0 22.0003 0 18.3337C0 14.667 3 11.667 6.66667 11.667H53.3333C57 11.667 60 14.667 60 18.3337Z" fill="#FFCD41"/>
<path d="M5 25H55V28.3333H5V25Z" fill="#C0992C"/>
<path d="M31.6666 5H28.3333C27.0072 5 25.7354 5.52678 24.7977 6.46447C23.86 7.40215 23.3333 8.67392 23.3333 10V58.3333H36.6666V10C36.6666 8.67392 36.1398 7.40215 35.2021 6.46447C34.2644 5.52678 32.9927 5 31.6666 5Z" fill="#FF7556"/>
<path d="M26.6666 11.667C28.4999 11.667 28.7716 10.807 27.2683 9.75538L16.0649 1.91204C15.7212 1.66175 15.328 1.48762 14.9117 1.40124C14.4953 1.31486 14.0654 1.31824 13.6504 1.41113C13.2355 1.50402 12.8451 1.6843 12.5053 1.93995C12.1655 2.1956 11.8842 2.52075 11.6799 2.89371L8.31994 8.77371C7.40994 10.3654 8.16661 11.667 9.99994 11.667H26.6666ZM33.3333 11.667C31.4999 11.667 31.2283 10.807 32.7316 9.75538L43.9366 1.91204C44.2804 1.66202 44.6736 1.4881 45.0899 1.40188C45.5062 1.31565 45.9361 1.31909 46.3509 1.41197C46.7658 1.50484 47.1561 1.68502 47.4959 1.94051C47.8357 2.19601 48.1172 2.52095 48.3216 2.89371L51.6816 8.77204C52.5899 10.3654 51.8333 11.667 49.9999 11.667H33.3333Z" fill="#FF7556"/>
</svg>
