<svg id="Layer_1" data-name="Layer 1" xmlns="http://www.w3.org/2000/svg" viewBox="0 0 24 24"><path d="M13.19,2.34h3.2A3.87,3.87,0,0,0,15,4a8.52,8.52,0,1,0,5,5,4.1,4.1,0,0,0,1.12-.78,3.69,3.69,0,0,0,.52-.66v9.24a5,5,0,0,1-1.24,3.5,5,5,0,0,1-3.52,1.24H7.15a4.89,4.89,0,0,1-3.5-1.24,5,5,0,0,1-1.24-3.52V7.1A4.9,4.9,0,0,1,3.65,3.6,4.89,4.89,0,0,1,7.17,2.36h6m-1.2,8A1.66,1.66,0,1,1,10.33,12h0A1.66,1.66,0,0,1,12,10.36M13.19,0H7A7.16,7.16,0,0,0,2,2,7.07,7.07,0,0,0,0,7V17a7.16,7.16,0,0,0,2,5,7.11,7.11,0,0,0,5,2h9.92A7.18,7.18,0,0,0,22,22a7.11,7.11,0,0,0,2-5c.1-1.66,0-3.3,0-5v-5A7.18,7.18,0,0,0,22,2a7.11,7.11,0,0,0-5-2H13.19Zm5.2,7h0a1.44,1.44,0,1,1,1.44-1.44v0a2,2,0,0,1-.1.54,1.23,1.23,0,0,1-.32.46,1.47,1.47,0,0,1-.46.32,1.32,1.32,0,0,1-.56,0ZM12,18.16A6.16,6.16,0,1,1,18.15,12h0A6.14,6.14,0,0,1,12,18.16ZM12,8a4,4,0,1,0,4,4A4,4,0,0,0,12,8Z" style="fill:#4f28d9"/></svg>