<svg width="32" height="32" viewBox="0 0 32 32" fill="none" xmlns="http://www.w3.org/2000/svg">
<path d="M22.7663 11.2377C22.3753 10.8453 21.9111 10.534 21.4002 10.3217C20.8893 10.1093 20.3417 10 19.7887 10C19.2357 10 18.6881 10.1093 18.1772 10.3217C17.6663 10.534 17.2021 10.8453 16.8112 11.2377L15.9998 12.0517L15.1884 11.2377C14.3987 10.4455 13.3277 10.0004 12.2109 10.0004C11.0941 10.0004 10.023 10.4455 9.23334 11.2377C8.44365 12.0299 8 13.1044 8 14.2248C8 15.3452 8.44365 16.4196 9.23334 17.2119L10.0447 18.0258L15.9998 24L21.9549 18.0258L22.7663 17.2119C23.1574 16.8197 23.4677 16.354 23.6794 15.8415C23.891 15.3289 24 14.7796 24 14.2248C24 13.67 23.891 13.1206 23.6794 12.6081C23.4677 12.0956 23.1574 11.6299 22.7663 11.2377V11.2377Z" fill="#FF7556"/>
</svg>
