<svg width="22" height="22" viewBox="0 0 22 22" fill="none" xmlns="http://www.w3.org/2000/svg">
<path d="M17.75 9.5C17.75 14.75 11 19.25 11 19.25C11 19.25 4.25 14.75 4.25 9.5C4.25 7.70979 4.96116 5.9929 6.22703 4.72703C7.4929 3.46116 9.20979 2.75 11 2.75C12.7902 2.75 14.5071 3.46116 15.773 4.72703C17.0388 5.9929 17.75 7.70979 17.75 9.5Z" fill="#4D24E1" fill-opacity="0.22" stroke="#4D24E1" stroke-linecap="round" stroke-linejoin="round"/>
<path d="M11 11.75C12.2426 11.75 13.25 10.7426 13.25 9.5C13.25 8.25736 12.2426 7.25 11 7.25C9.75736 7.25 8.75 8.25736 8.75 9.5C8.75 10.7426 9.75736 11.75 11 11.75Z" fill="#4D24E1" fill-opacity="0.22" stroke="#4D24E1" stroke-linecap="round" stroke-linejoin="round"/>
</svg>
