<svg width="191" height="68" viewBox="0 0 191 68" fill="none" xmlns="http://www.w3.org/2000/svg">
<path d="M162.548 45.2667C159.972 45.2667 157.63 45.2667 155.209 45.2667C155.209 30.1778 155.209 15.0889 155.209 0C157.864 0 160.44 0 163.173 0C163.173 4.66667 163.173 9.33333 163.173 14C164.89 12.9889 166.015 11.9606 168.091 11.2C170.665 10.2572 172.304 10.0016 175.04 10.1889C179.118 10.4681 181.623 11.4983 184.721 14.1556C187.406 16.4587 188.504 18.3836 189.718 21.7C190.722 24.4447 191.004 26.1698 190.889 29.0889C190.624 35.8131 188.366 40.7809 182.535 44.1778C178.329 46.628 174.902 47.3166 170.199 46.0444C167.207 45.2348 165.281 43.9444 163.329 42.0778C163.173 41.9222 162.939 41.8444 162.626 41.6111C162.548 42.9333 162.548 44.1 162.548 45.2667ZM162.782 28.0778C162.711 33.049 165.306 37.1948 170.121 38.5C174.65 39.7275 178.761 38.0084 181.286 34.0667C183.231 31.0297 183.437 28.2824 182.223 24.8889C180.414 19.8349 175.593 16.6362 170.356 17.8889C165.523 19.0448 162.854 23.1272 162.782 28.0778Z" fill="#171C34"/>
<path d="M34.8206 31.9666C26.0764 31.9666 17.5665 31.9666 9.0565 31.9666C8.97843 31.9666 8.90035 32.0444 8.90035 32.0444C8.82228 34.2222 11.6329 37.4111 14.4435 38.2666C18.8156 39.6666 23.0316 38.9666 25.7641 34.5333C28.5748 34.5333 31.3073 34.5333 34.196 34.5333C33.4934 36.8666 32.3223 38.8111 30.7608 40.6C28.5748 43.0111 25.9984 44.8 22.8754 45.7333C19.9087 46.6666 16.7857 46.6666 13.6628 46.0444C10.696 45.4222 8.04155 44.1778 5.8555 42.1555C3.51331 39.9778 1.71763 37.2555 0.780753 33.9889C2.23858e-05 31.3444 -0.156124 28.7 0.156169 26.0555C0.70268 20.9222 2.88873 16.6444 7.10467 13.4555C10.3057 11.0444 13.897 9.95554 17.8007 9.87776C21.5482 9.79998 25.0615 10.7333 28.2625 12.9889C32.1661 15.7111 34.196 19.5222 35.1329 23.8778C35.6794 26.5222 35.6014 29.3222 34.8206 31.9666ZM26.8572 25.2778C26.3887 21.4666 23.4219 17.7333 18.4253 17.4222C13.1944 17.1111 9.13457 21.0778 8.50999 25.2778C14.5997 25.2778 20.6894 25.2778 26.8572 25.2778Z" fill="#171C34"/>
<path d="M151.774 28.3111C151.93 39.1222 143.733 46.4333 133.817 46.5111C123.902 46.5111 115.86 38.5778 115.782 28.3889C115.704 18.2 123.824 10.1889 133.817 10.1111C143.655 10.1111 152.008 17.9666 151.774 28.3111ZM123.98 28.3111C124.058 32.3555 125.542 35.5444 129.289 37.7222C133.973 40.4444 139.517 38.6555 142.093 34.3C144.357 30.5666 144.513 26.5222 142.171 22.7111C139.595 18.5111 135.769 16.7222 131.475 17.9666C126.869 19.3666 123.824 23.2555 123.98 28.3111Z" fill="#686561"/>
<path d="M94.6246 46.5888C84.6312 46.2777 76.5116 38.5 76.6677 28C76.8239 18.2 84.5531 10.1111 94.7807 10.1888C105.399 10.2666 112.816 18.3555 112.738 28.3888C112.659 38.8888 105.321 46.2 94.6246 46.5888ZM84.8654 28.3111C84.6312 31.8888 87.1295 36.0111 90.0182 37.6444C96.0299 41.0666 102.822 37.4888 104.306 31.1111C105.399 26.6 103.993 22.6333 100.246 19.6C97.8256 17.6555 95.093 17.1888 92.2824 18.0444C87.676 19.2888 84.8654 23.4889 84.8654 28.3111Z" fill="#686561"/>
<path d="M57.2276 37.6445C58.7109 39.2 60.1163 40.7556 61.5216 42.3111C60.1163 44.1 58.2425 45.1111 56.1345 45.8889C53.3239 46.9 50.5133 46.7445 47.7807 45.8889C45.0481 45.0333 42.8621 43.1667 42.2375 40.2889C41.7691 38.1889 41.6129 36.0111 41.5349 33.9111C41.4568 29.4 41.5349 24.8889 41.5349 20.3778C41.5349 19.9889 41.5349 19.6778 41.5349 19.1333C40.2076 19.1333 39.0365 19.1333 37.7874 19.1333C37.7874 16.5667 37.7874 14.2333 37.7874 11.8222C39.0365 11.8222 40.2076 11.8222 41.4568 11.8222C41.4568 8.0889 41.4568 3.73333 41.4568 0C44.2674 0 47 0 49.8106 0C49.8106 3.73333 49.8106 8.01112 49.8106 11.7445C51.4501 11.7445 52.9335 11.7445 54.5731 11.7445C54.5731 14.1556 54.5731 16.5667 54.5731 18.9778C53.0116 18.9778 51.5282 18.9778 49.8887 18.9778C49.8106 19.3667 49.8106 19.6 49.8106 19.8333C49.8106 25.3556 49.8106 30.8778 49.8106 36.3222C49.8106 37.7222 50.1229 39.2778 51.7624 39.5889C52.7774 39.7445 53.9485 39.4333 54.9634 39.1222C55.7442 38.8889 56.3687 38.2667 57.2276 37.6445Z" fill="#171C34"/>
<path d="M72.4518 0C72.4518 15.4778 72.4518 30.9556 72.4518 46.4333C69.8754 46.4333 67.2209 46.4333 64.5664 46.4333C64.5664 31.0333 64.5664 15.5556 64.5664 0C67.1428 0 69.7192 0 72.4518 0Z" fill="#171C34"/>
<path d="M87.5199 53.7444C88.8471 52.8111 90.0963 52.0333 91.3455 51.1778C97.0448 59.0333 104.696 63.3889 114.377 63.3111C123.98 63.2333 131.631 58.9555 137.174 51.1C137.877 51.5666 138.502 51.8778 139.126 52.3444C139.673 52.7333 140.297 53.2 140.844 53.5889C138.658 59.7333 125.463 67.5111 116.797 67.9C104.462 68.3666 94.8588 63.7 87.5199 53.7444Z" fill="#171C34"/>
<path d="M147.714 64.1C147.714 63.4 147.714 62.7 147.714 62C148.495 62 149.276 62 150.135 62C150.135 62.7 150.135 63.4 150.135 64.1C149.276 64.1 148.495 64.1 147.714 64.1Z" fill="#171C34"/>
<ellipse cx="94.8588" cy="28.3889" rx="18.3472" ry="18.2778" fill="#171C34"/>
<ellipse cx="94.8588" cy="28.3889" rx="10.5399" ry="10.5" fill="#FFCD41"/>
<ellipse cx="133.895" cy="28.3889" rx="18.3472" ry="18.2778" fill="#171C34"/>
<ellipse cx="133.895" cy="28.3889" rx="10.5399" ry="10.5" fill="#FFCD41"/>
<path d="M158.369 64.2045C157.449 64.2045 156.656 63.9872 155.991 63.5526C155.327 63.1179 154.815 62.5192 154.457 61.7564C154.099 60.9936 153.92 60.1222 153.92 59.142C153.92 58.1449 154.104 57.2649 154.47 56.5021C154.841 55.7351 155.357 55.1364 156.017 54.706C156.682 54.2713 157.457 54.054 158.344 54.054C159.034 54.054 159.656 54.1818 160.21 54.4375C160.764 54.6932 161.218 55.0511 161.572 55.5114C161.925 55.9716 162.145 56.5085 162.23 57.1222H160.722C160.607 56.6747 160.351 56.2784 159.955 55.9332C159.563 55.5838 159.034 55.4091 158.369 55.4091C157.781 55.4091 157.266 55.5625 156.822 55.8693C156.384 56.1719 156.04 56.6001 155.793 57.1541C155.55 57.7038 155.429 58.3494 155.429 59.0909C155.429 59.8494 155.548 60.5099 155.787 61.0724C156.03 61.6349 156.371 62.0717 156.81 62.3828C157.253 62.6939 157.773 62.8494 158.369 62.8494C158.761 62.8494 159.117 62.7812 159.437 62.6449C159.756 62.5085 160.027 62.3125 160.249 62.0568C160.47 61.8011 160.628 61.4943 160.722 61.1364H162.23C162.145 61.7159 161.934 62.2379 161.597 62.7024C161.265 63.1626 160.824 63.5291 160.274 63.8018C159.729 64.0703 159.094 64.2045 158.369 64.2045ZM168.424 64.2045C167.538 64.2045 166.76 63.9936 166.091 63.5717C165.426 63.1499 164.906 62.5597 164.531 61.8011C164.161 61.0426 163.975 60.1562 163.975 59.142C163.975 58.1193 164.161 57.2266 164.531 56.4638C164.906 55.701 165.426 55.1087 166.091 54.6868C166.76 54.2649 167.538 54.054 168.424 54.054C169.31 54.054 170.086 54.2649 170.751 54.6868C171.42 55.1087 171.94 55.701 172.31 56.4638C172.685 57.2266 172.873 58.1193 172.873 59.142C172.873 60.1562 172.685 61.0426 172.31 61.8011C171.94 62.5597 171.42 63.1499 170.751 63.5717C170.086 63.9936 169.31 64.2045 168.424 64.2045ZM168.424 62.8494C169.097 62.8494 169.651 62.6768 170.086 62.3317C170.521 61.9865 170.842 61.5327 171.051 60.9702C171.26 60.4077 171.364 59.7983 171.364 59.142C171.364 58.4858 171.26 57.8743 171.051 57.3075C170.842 56.7408 170.521 56.2827 170.086 55.9332C169.651 55.5838 169.097 55.4091 168.424 55.4091C167.751 55.4091 167.197 55.5838 166.762 55.9332C166.327 56.2827 166.006 56.7408 165.797 57.3075C165.588 57.8743 165.484 58.4858 165.484 59.142C165.484 59.7983 165.588 60.4077 165.797 60.9702C166.006 61.5327 166.327 61.9865 166.762 62.3317C167.197 62.6768 167.751 62.8494 168.424 62.8494ZM175.176 64V54.1818H176.633V55.7159H176.761C176.965 55.1918 177.296 54.7848 177.752 54.495C178.208 54.201 178.755 54.054 179.394 54.054C180.042 54.054 180.581 54.201 181.012 54.495C181.446 54.7848 181.785 55.1918 182.028 55.7159H182.13C182.382 55.2088 182.759 54.8061 183.262 54.5078C183.764 54.2053 184.367 54.054 185.07 54.054C185.948 54.054 186.666 54.3288 187.225 54.8786C187.783 55.424 188.062 56.2741 188.062 57.429V64H186.553V57.429C186.553 56.7045 186.355 56.1868 185.959 55.8757C185.563 55.5646 185.096 55.4091 184.559 55.4091C183.869 55.4091 183.334 55.6179 182.955 56.0355C182.575 56.4489 182.386 56.973 182.386 57.608V64H180.852V57.2756C180.852 56.7173 180.671 56.2678 180.308 55.9268C179.946 55.5817 179.48 55.4091 178.909 55.4091C178.517 55.4091 178.15 55.5135 177.809 55.7223C177.472 55.9311 177.2 56.2209 176.991 56.5916C176.786 56.9581 176.684 57.3821 176.684 57.8636V64H175.176Z" fill="#171C34"/>
</svg>
