<svg width="64" height="64" viewBox="0 0 64 64" fill="none" xmlns="http://www.w3.org/2000/svg">
<g clip-path="url(#clip0_16_198)">
<path d="M64.0001 13.9189C63.2118 16.4865 62.4236 19.027 61.6354 21.5946C59.5758 28.3784 57.5416 35.1892 55.482 41.973C55.0243 43.4865 54.4395 43.973 52.9393 43.973C43.2007 43.973 33.4367 43.973 23.6981 43.973C23.3167 43.973 22.9099 43.9189 22.4522 43.8919C21.8419 45.6757 21.2317 47.5135 20.5706 49.4324C20.9266 49.4324 21.1808 49.4324 21.4351 49.4324C31.8602 49.4324 42.2599 49.4324 52.685 49.4324C52.9647 49.4324 53.219 49.4324 53.4987 49.4595C54.4395 49.5676 55.1006 50.3243 55.0752 51.2703C55.0752 52.2432 54.3632 53 53.4224 53.0811C52.8121 53.1081 52.2273 53.0811 51.4899 53.0811C52.9901 55.1622 53.4478 57.3513 52.6087 59.7297C52.151 61.0541 51.3374 62.1351 50.244 62.8919C47.7522 64.5946 44.4975 64.2432 42.5142 62.027C40.5309 59.8378 39.8952 56.2973 42.2091 53.1351C37.7847 53.1351 33.4113 53.1351 28.9361 53.1351C30.0549 54.7027 30.6397 56.4324 30.36 58.3784C30.0803 60.3243 29.1649 61.8649 27.6139 62.9189C25.122 64.5946 22.1725 64.2703 20.0366 62.1351C18.867 60.9459 18.2059 59.4324 18.155 57.7027C18.1042 56.027 18.5873 54.4865 19.7315 53.0811C19.1467 53.0811 18.7144 53.0811 18.2822 53.0811C16.8582 53.027 16.0954 51.9189 16.5785 50.4865C17.5448 47.5405 18.5364 44.6216 19.5789 41.7027C19.7569 41.1892 20.1892 40.8108 20.5706 40.2162C19.9858 38.4324 19.3501 36.4324 18.7144 34.4595C15.892 25.8378 13.0442 17.1622 10.2472 8.48648C10.0946 8 9.84036 7.75675 9.38267 7.56756C6.81453 6.51351 4.2464 5.43243 1.67826 4.35135C1.246 4.16216 0.813737 3.89189 0.508612 3.54054C-0.127065 2.81081 -0.127065 1.75675 0.406904 0.972968C0.940873 0.13513 1.9071 -0.216221 2.89876 0.189184C4.70408 0.918914 6.50941 1.67567 8.2893 2.43243C9.53523 2.94594 10.7557 3.51351 12.0017 3.97297C12.917 4.32432 13.4764 4.97297 13.7816 5.94594C14.2392 7.48648 14.7986 8.97297 15.2563 10.5135C15.4089 11.1351 15.6886 11.2973 16.2734 11.2703C31.3263 11.2432 46.3791 11.2703 61.4574 11.2432C62.7287 11.2432 63.5678 11.7297 64.0001 13C64.0001 13.3243 64.0001 13.6216 64.0001 13.9189ZM16.9345 15.6757C17.4176 17.1351 17.8753 18.5135 18.3076 19.9189C18.4601 20.3784 18.6381 20.5676 19.1212 20.5676C22.3505 20.5405 25.6052 20.5405 28.8598 20.5405C29.0632 20.5405 29.2667 20.5135 29.4701 20.5135C29.4701 18.8649 29.4701 17.2973 29.4701 15.6757C25.3 15.6757 21.1554 15.6757 16.9345 15.6757ZM59.0926 15.6757C55.1006 15.6757 51.134 15.6757 47.1928 15.6757C47.1928 17.2973 47.1928 18.8919 47.1928 20.4324C47.2436 20.4865 47.269 20.5135 47.2945 20.5135C50.6508 20.5135 53.9818 20.5405 57.3382 20.5405C57.4653 20.5405 57.6687 20.4054 57.7196 20.2973C58.1773 18.7568 58.635 17.2432 59.0926 15.6757ZM33.6655 24.9459C33.6655 26.8108 33.6655 28.6757 33.6655 30.5135C36.8185 30.5135 39.8952 30.5135 43.0227 30.5135C43.0227 28.6486 43.0227 26.8108 43.0227 24.9459C39.8698 24.9459 36.7677 24.9459 33.6655 24.9459ZM19.9349 24.9459C20.4943 26.7027 21.0537 28.3243 21.5622 29.973C21.6894 30.4054 21.8674 30.5405 22.2996 30.5405C24.5118 30.5135 26.7239 30.5405 28.9107 30.5135C29.0887 30.5135 29.2667 30.4865 29.4192 30.4865C29.4192 28.5946 29.4192 26.7838 29.4192 24.9189C26.2917 24.9459 23.1642 24.9459 19.9349 24.9459ZM33.6401 20.5135C36.7931 20.5135 39.8952 20.5135 43.0227 20.5135C43.0227 18.8919 43.0227 17.2973 43.0227 15.6757C39.8952 15.6757 36.7676 15.6757 33.6401 15.6757C33.6401 17.2973 33.6401 18.8649 33.6401 20.5135ZM47.1928 30.5405C49.6083 30.5405 51.9476 30.5405 54.2869 30.5135C54.4395 30.5135 54.6683 30.2432 54.7446 30.054C55.2277 28.5405 55.6854 27 56.1431 25.4595C56.194 25.2973 56.194 25.1351 56.2448 24.9459C53.1936 24.9459 50.2186 24.9459 47.1928 24.9459C47.1928 26.8108 47.1928 28.6216 47.1928 30.5405ZM33.6401 39.5676C36.8185 39.5676 39.9206 39.5676 43.0227 39.5676C43.0227 38 43.0227 36.4865 43.0227 34.9459C39.8698 34.9459 36.7676 34.9459 33.6401 34.9459C33.6401 36.5135 33.6401 38.027 33.6401 39.5676ZM29.4446 39.6216C29.4446 38 29.4446 36.4865 29.4446 34.9459C27.3596 34.9459 25.3 34.9459 23.215 34.9459C23.6981 36.4324 24.1558 37.8378 24.6389 39.2703C24.6898 39.4054 24.8932 39.5946 25.0203 39.5946C26.4951 39.6486 27.9699 39.6216 29.4446 39.6216ZM53.2953 34.9459C51.2102 34.9459 49.2269 34.9459 47.1928 34.9459C47.1928 36.5135 47.1928 38.027 47.1928 39.6216C48.693 39.6216 50.1677 39.6216 51.6425 39.6216C51.7442 39.6216 51.9222 39.4865 51.9731 39.3784C52.4053 37.9189 52.8376 36.4595 53.2953 34.9459ZM46.8876 54.5676C45.3874 54.5676 44.1415 55.8919 44.1415 57.4865C44.1669 59.0541 45.362 60.3513 46.8622 60.3784C48.3624 60.4054 49.6083 59.0811 49.6338 57.4865C49.6338 55.8649 48.3878 54.5676 46.8876 54.5676ZM21.5877 57.4595C21.5877 59.0811 22.8336 60.3784 24.3338 60.3513C25.8594 60.3243 27.0545 59.027 27.0291 57.4054C27.0036 55.8108 25.8086 54.5676 24.3084 54.5676C22.7827 54.5676 21.5622 55.8649 21.5877 57.4595Z" fill="#CCCCCC"/>
<line x1="2" y1="-2" x2="79.4395" y2="-2" transform="matrix(0.675348 0.737499 -0.747825 0.663895 0 0)" stroke="#F5F6FE" stroke-width="4" stroke-linecap="round"/>
</g>
<defs>
<clipPath id="clip0_16_198">
<rect width="64" height="64" fill="white"/>
</clipPath>
</defs>
</svg>
