<svg width="64" height="66" viewBox="0 0 64 66" fill="none" xmlns="http://www.w3.org/2000/svg">
<path d="M51.5301 19.71C50.4305 18.6606 49.125 17.8282 47.6881 17.2602C46.2512 16.6923 44.7111 16.4 43.1557 16.4C41.6004 16.4 40.0602 16.6923 38.6233 17.2602C37.1864 17.8282 35.8809 18.6606 34.7814 19.71L32.4994 21.8867L30.2175 19.71C27.9965 17.5913 24.9841 16.4011 21.8431 16.4011C18.7021 16.4011 15.6898 17.5913 13.4688 19.71C11.2478 21.8286 10 24.7021 10 27.6983C10 30.6945 11.2478 33.568 13.4688 35.6866L15.7507 37.8634L32.4994 53.84L49.2481 37.8634L51.5301 35.6866C52.6301 34.6377 53.5028 33.3924 54.0982 32.0217C54.6936 30.6511 55 29.1819 55 27.6983C55 26.2146 54.6936 24.7455 54.0982 23.3748C53.5028 22.0042 52.6301 20.7588 51.5301 19.71V19.71Z" fill="#CCCCCC"/>
<line x1="2" y1="-2" x2="86.6441" y2="-2" transform="matrix(0.691905 0.721988 -0.749523 0.661979 0 2)" stroke="#F5F6FE" stroke-width="4" stroke-linecap="round"/>
</svg>
