<svg width="64" height="66" viewBox="0 0 64 66" fill="none" xmlns="http://www.w3.org/2000/svg">
<path d="M31.7238 38.4149C28.2599 38.3506 25.4006 41.1208 25.3365 44.5987C25.2725 48.0766 28.0287 50.954 31.489 51.0184C34.9529 51.0827 37.8122 48.3161 37.8763 44.8346C37.9403 41.3567 35.1876 38.4793 31.7238 38.4149Z" fill="#CCCCCC"/>
<path d="M31.8874 30.998C31.8625 30.9944 31.8341 30.998 31.802 30.9944C31.7772 30.9944 31.7487 30.9908 31.7167 30.9908V30.9944C26.4142 31.0087 21.67 33.5394 18.6364 37.482L22.3884 40.2915C24.5649 37.5034 27.9398 35.7162 31.7131 35.7019C35.4829 35.8556 38.7903 37.7679 40.8601 40.6382L44.7152 37.9717C41.831 33.9183 37.1828 31.2089 31.8874 30.998Z" fill="#CCCCCC"/>
<path d="M32.0261 23.5489C31.9976 23.5453 31.9727 23.5489 31.9407 23.5489C31.9158 23.5489 31.8874 23.5453 31.8554 23.5453V23.5489C24.0741 23.5131 17.1107 27.2341 12.6973 33.0354L16.4492 35.8449C20.0091 31.1982 25.6068 28.2207 31.8554 28.2528C38.1003 28.4566 43.5842 31.6414 46.9663 36.4204L50.8214 33.7575C46.6214 27.7917 39.8038 23.8098 32.0261 23.5489Z" fill="#CCCCCC"/>
<path d="M32.1577 16.4071V16.4036C32.1328 16.4036 32.1043 16.4036 32.0723 16.4036C32.0474 16.4036 32.019 16.4036 31.987 16.4V16.4036C21.8336 16.3249 12.74 21.1862 7 28.7675L10.7484 31.5735C15.6313 25.1431 23.3592 21.0289 31.987 21.1039C40.6111 21.3542 48.1791 25.7579 52.8201 32.367L56.6716 29.704C51.2197 21.9118 42.3111 16.711 32.1577 16.4071Z" fill="#CCCCCC"/>
<line x1="2" y1="-2" x2="84.7666" y2="-2" transform="matrix(0.675226 0.737611 -0.734246 0.678884 0 2)" stroke="#F5F6FE" stroke-width="4" stroke-linecap="round"/>
</svg>
