<svg width="64" height="64" viewBox="0 0 64 64" fill="none" xmlns="http://www.w3.org/2000/svg">
<g clip-path="url(#clip0_1426_21984)">
<path d="M-3 29H65" stroke="#F5F6FE" stroke-width="4" stroke-linecap="round" stroke-linejoin="round"/>
<g clip-path="url(#clip1_1426_21984)">
<path d="M45.25 24C45.25 20.6185 43.9067 17.3755 41.5156 14.9844C39.1245 12.5933 35.8815 11.25 32.5 11.25C29.1185 11.25 25.8755 12.5933 23.4844 14.9844C21.0933 17.3755 19.75 20.6185 19.75 24C19.75 38.875 13.375 43.125 13.375 43.125H51.625C51.625 43.125 45.25 38.875 45.25 24Z" fill="#CCCCCC"/>
<path d="M41 47C40.1362 48.5208 38.8963 49.7831 37.4046 50.6606C35.9128 51.5381 34.2215 52 32.5 52C30.7785 52 29.0872 51.5381 27.5954 50.6606C26.1037 49.7831 24.8638 48.5208 24 47" fill="#CCCCCC"/>
</g>
<line x1="0.159349" y1="0.117749" x2="58.7845" y2="63.8407" stroke="#F5F6FE" stroke-width="4" stroke-linecap="round"/>
</g>
<defs>
<clipPath id="clip0_1426_21984">
<rect width="64" height="64" fill="white"/>
</clipPath>
<clipPath id="clip1_1426_21984">
<rect width="52" height="52" fill="white" transform="translate(5 5)"/>
</clipPath>
</defs>
</svg>
