<svg width="64" height="66" viewBox="0 0 64 66" fill="none" xmlns="http://www.w3.org/2000/svg">
<g clip-path="url(#clip0_3_90)">
<path d="M32 14.8C38.1806 14.8 43.1938 19.7272 43.1938 25.8017C43.1938 31.8763 38.1806 36.8035 32 36.8035C25.8194 36.7991 20.8062 31.8763 20.8062 25.8017C20.8062 19.7272 25.8194 14.8 32 14.8Z" fill="#CCCCCC"/>
<path d="M25.5198 37.8383H38.4802C44.2907 37.8383 49 42.4667 49 48.1819V52.4423C49 52.8623 48.6564 53.2 48.2291 53.2H15.7665C15.3436 53.2 14.9956 52.8623 14.9956 52.4423V48.1819C15 42.4667 19.7093 37.8383 25.5198 37.8383Z" fill="#CCCCCC"/>
</g>
<line x1="2" y1="-2" x2="79.4395" y2="-2" transform="matrix(0.675348 0.737499 -0.747825 0.663895 2 2)" stroke="#F5F6FE" stroke-width="4" stroke-linecap="round"/>
<defs>
<clipPath id="clip0_3_90">
<rect width="34" height="38.4" fill="white" transform="matrix(-1 0 0 1 49 14.8)"/>
</clipPath>
</defs>
</svg>
