<svg id="Layer_1" data-name="Layer 1" xmlns="http://www.w3.org/2000/svg" viewBox="0 0 64 64"><path d="M22.31,19.9,30.6,3.5a1.8,1.8,0,0,1,3.22,0l8,16.56a1.77,1.77,0,0,0,1.34,1L61.3,23.9a1.79,1.79,0,0,1,1,3.07L49,39.67a1.79,1.79,0,0,0-.53,1.59L51.38,59.4a1.8,1.8,0,0,1-2.63,1.87L32.57,52.56a1.79,1.79,0,0,0-1.67,0l-16.35,8.4A1.8,1.8,0,0,1,12,59l3.29-18.09a1.8,1.8,0,0,0-.5-1.59l-13-13a1.8,1.8,0,0,1,1-3.05L21,20.87A1.8,1.8,0,0,0,22.31,19.9Z" style="fill:none;stroke:#f9cc00;stroke-miterlimit:10"/></svg>