<svg width="22" height="22" viewBox="0 0 22 22" fill="none" xmlns="http://www.w3.org/2000/svg">
<path d="M10.1033 3.64994C10.4701 2.90678 11.5299 2.90678 11.8967 3.64994L13.6001 7.10074C13.7456 7.39558 14.0268 7.60004 14.3521 7.6476L18.1629 8.2046C18.9828 8.32444 19.3096 9.33228 18.716 9.91044L15.9601 12.5947C15.7242 12.8244 15.6166 13.1555 15.6722 13.4801L16.3224 17.2709C16.4625 18.0879 15.605 18.7109 14.8714 18.3251L11.4655 16.5339C11.1741 16.3807 10.8259 16.3807 10.5345 16.5339L7.12863 18.3251C6.395 18.7109 5.53745 18.0879 5.67757 17.2709L6.32775 13.4801C6.38341 13.1555 6.27575 12.8244 6.03988 12.5947L3.28401 9.91044C2.69042 9.33228 3.0172 8.32444 3.83712 8.2046L7.64787 7.6476C7.97322 7.60004 8.25441 7.39558 8.39995 7.10074L10.1033 3.64994Z" stroke="#4D24E1" stroke-width="2" stroke-linecap="round" stroke-linejoin="round"/>
</svg>
