<svg width="32" height="32" viewBox="0 0 32 32" fill="none" xmlns="http://www.w3.org/2000/svg">
<path d="M0 16C0 7.16344 7.16344 0 16 0V0C24.8366 0 32 7.16344 32 16V16C32 24.8366 24.8366 32 16 32V32C7.16344 32 0 24.8366 0 16V16Z" fill="white"/>
<path d="M15.1035 8.64988C15.4703 7.90671 16.53 7.90671 16.8969 8.64988L18.6002 12.1007C18.7458 12.3955 19.0269 12.6 19.3523 12.6475L23.163 13.2045C23.983 13.3244 24.3097 14.3322 23.7162 14.9104L20.9603 17.5946C20.7244 17.8243 20.6167 18.1555 20.6724 18.48L21.3226 22.2709C21.4627 23.0878 20.6052 23.7108 19.8715 23.325L16.4656 21.5339C16.1742 21.3806 15.8261 21.3806 15.5347 21.5339L12.1288 23.325C11.3952 23.7108 10.5376 23.0878 10.6777 22.2709L11.3279 18.48C11.3836 18.1555 11.2759 17.8243 11.04 17.5946L8.28418 14.9104C7.69058 14.3322 8.01736 13.3244 8.83728 13.2045L12.648 12.6475C12.9734 12.6 13.2546 12.3955 13.4001 12.1007L15.1035 8.64988Z" fill="#FEFDEB" stroke="#FFCD41" stroke-linecap="round" stroke-linejoin="round"/>
</svg>
