<svg width="64" height="64" viewBox="0 0 64 64" fill="none" xmlns="http://www.w3.org/2000/svg">
<path d="M7.05095 34.903C6.95465 34.903 6.86237 34.6589 6.7943 34.2247C6.72623 33.7904 6.68799 33.2016 6.68799 32.5872V17.952C6.68799 17.3379 6.72623 16.7488 6.7943 16.3145C6.86237 15.8802 6.95465 15.6362 7.05095 15.6362C7.1472 15.6362 7.23953 15.8802 7.3076 16.3145C7.37567 16.7488 7.41386 17.3379 7.41386 17.952V32.5872C7.41386 33.2016 7.37567 33.7904 7.3076 34.2247C7.23953 34.6589 7.1472 34.903 7.05095 34.903Z" fill="#333333"/>
<path d="M7.05095 40.485C6.95465 40.485 6.86237 40.4455 6.7943 40.3752C6.72623 40.3048 6.68799 40.2094 6.68799 40.1099V37.7392C6.68799 37.6397 6.72623 37.5443 6.7943 37.4739C6.86237 37.4036 6.95465 37.3641 7.05095 37.3641C7.1472 37.3641 7.23953 37.4036 7.3076 37.4739C7.37567 37.5443 7.41386 37.6397 7.41386 37.7392V40.1099C7.41386 40.2094 7.37567 40.3048 7.3076 40.3752C7.23953 40.4455 7.1472 40.485 7.05095 40.485Z" fill="#333333"/>
<path d="M58.1105 37.9755C58.0142 37.9755 57.9219 37.936 57.8539 37.8656C57.7858 37.7953 57.7476 37.6999 57.7476 37.6004V35.2297C57.7476 35.1302 57.7858 35.0348 57.8539 34.9644C57.9219 34.8941 58.0142 34.8546 58.1105 34.8546C58.2068 34.8546 58.2991 34.8941 58.3672 34.9644C58.4352 35.0348 58.4734 35.1302 58.4734 35.2297V37.6004C58.4734 37.6999 58.4352 37.7953 58.3672 37.8656C58.2991 37.936 58.2068 37.9755 58.1105 37.9755Z" fill="#333333"/>
<path d="M7.05095 49.3943C6.95465 49.3943 6.86237 49.3174 6.7943 49.1803C6.72623 49.0433 6.68799 48.8576 6.68799 48.6637V44.0463C6.68799 43.8526 6.72623 43.6668 6.7943 43.5297C6.86237 43.3927 6.95465 43.3157 7.05095 43.3157C7.1472 43.3157 7.23953 43.3927 7.3076 43.5297C7.37567 43.6668 7.41386 43.8526 7.41386 44.0463V48.6637C7.41386 48.8576 7.37567 49.0433 7.3076 49.1803C7.23953 49.3174 7.1472 49.3943 7.05095 49.3943Z" fill="#333333"/>
<path d="M58.1117 35.6566C58.0154 35.6566 57.9235 35.3926 57.8552 34.9229C57.787 34.4532 57.749 33.8164 57.749 33.1518V17.3223C57.749 16.6582 57.787 16.021 57.8552 15.5513C57.9235 15.0815 58.0154 14.8176 58.1117 14.8176C58.208 14.8176 58.3004 15.0815 58.3686 15.5513C58.4363 16.021 58.4748 16.6582 58.4748 17.3223V33.1518C58.4748 33.8164 58.4363 34.4532 58.3686 34.9229C58.3004 35.3926 58.208 35.6566 58.1117 35.6566Z" fill="#333333"/>
<path opacity="0.2" d="M57.7492 29.1377H7.41406V48.8209H57.7492V29.1377Z" fill="#666666"/>
<path d="M56.6166 8.35396C56.5759 8.35396 56.5371 8.33796 56.5082 8.30948C56.4794 8.281 56.4634 8.24237 56.4634 8.2021V2.01245C56.4634 1.97218 56.4794 1.93355 56.5082 1.90507C56.5371 1.87659 56.5759 1.8606 56.6166 1.8606C56.6572 1.8606 56.6963 1.87659 56.7251 1.90507C56.7537 1.93355 56.77 1.97218 56.77 2.01245V8.2021C56.77 8.24237 56.7537 8.281 56.7251 8.30948C56.6963 8.33796 56.6572 8.35396 56.6166 8.35396Z" fill="#333333"/>
<path d="M54.1302 8.96773C54.0896 8.96773 54.0507 8.95173 54.0219 8.92325C53.9931 8.89477 53.9771 8.85614 53.9771 8.81587V2.62622C53.9771 2.58595 53.9931 2.54732 54.0219 2.51884C54.0507 2.49036 54.0896 2.47437 54.1302 2.47437C54.1709 2.47437 54.21 2.49036 54.2388 2.51884C54.2674 2.54732 54.2836 2.58595 54.2836 2.62622V8.81587C54.2836 8.85614 54.2674 8.89477 54.2388 8.92325C54.21 8.95173 54.1709 8.96773 54.1302 8.96773Z" fill="#333333"/>
<path d="M56.5438 2.33659C56.9022 2.33659 57.1927 2.04886 57.1927 1.69393C57.1927 1.339 56.9022 1.05127 56.5438 1.05127C56.1855 1.05127 55.895 1.339 55.895 1.69393C55.895 2.04886 56.1855 2.33659 56.5438 2.33659Z" fill="#ACACAC"/>
<path d="M54.1088 3.02751C54.4671 3.02751 54.7576 2.73978 54.7576 2.38485C54.7576 2.02992 54.4671 1.74219 54.1088 1.74219C53.7504 1.74219 53.46 2.02992 53.46 2.38485C53.46 2.73978 53.7504 3.02751 54.1088 3.02751Z" fill="#ACACAC"/>
<path d="M56.5976 2.56648C56.439 2.56678 56.2837 2.52039 56.1514 2.4332C56.0193 2.346 55.9163 2.22192 55.8553 2.07667C55.7944 1.93141 55.7784 1.77152 55.8093 1.61724C55.8402 1.46297 55.9167 1.32124 56.0291 1.21003C56.1411 1.09881 56.2844 1.0231 56.4402 0.992489C56.5958 0.961878 56.7572 0.977742 56.9039 1.03807C57.0507 1.0984 57.1758 1.20048 57.2639 1.33138C57.3518 1.46228 57.3988 1.61612 57.3986 1.77341C57.3981 1.98362 57.3134 2.18511 57.1634 2.33375C57.0134 2.48239 56.81 2.56608 56.5976 2.56648ZM56.5976 1.28267C56.4997 1.28237 56.4037 1.3109 56.3221 1.36464C56.2404 1.41837 56.1767 1.49491 56.1388 1.58456C56.1011 1.6742 56.0911 1.77292 56.1102 1.86821C56.1291 1.9635 56.176 2.05108 56.2453 2.11986C56.3146 2.18865 56.4028 2.23554 56.499 2.25459C56.5951 2.27365 56.6949 2.26402 56.7855 2.22693C56.876 2.18983 56.9534 2.12693 57.0081 2.0462C57.0625 1.96547 57.0916 1.87053 57.0916 1.77341C57.0916 1.64352 57.0397 1.51893 56.9472 1.42694C56.8546 1.33495 56.7288 1.28308 56.5976 1.28267Z" fill="#333333"/>
<path d="M58.1029 39.0923L3.96849 47.7291C2.38326 47.982 1.30515 49.4599 1.56049 51.03L2.96249 59.6513C3.21783 61.2214 4.70994 62.2892 6.29517 62.0363L60.4296 53.3996C62.0149 53.1466 63.0927 51.6688 62.8374 50.0987L61.4354 41.4774C61.18 39.9073 59.6882 38.8394 58.1029 39.0923Z" fill="white"/>
<path d="M61.2866 41.8689L62.688 50.4866C62.8105 51.2397 62.6259 52.0101 62.1752 52.6283C61.7239 53.2466 61.0435 53.6621 60.2834 53.7833L44.391 56.3189C44.008 56.38 43.6161 56.2879 43.3016 56.0628C42.9872 55.8378 42.7759 55.4982 42.7142 55.1189C42.6525 54.7396 42.7455 54.3514 42.9727 54.04C43.1999 53.7285 43.5428 53.5192 43.9258 53.4581L58.5388 51.1267C58.9218 51.0656 59.2646 50.8563 59.4915 50.5449C59.719 50.2334 59.8119 49.8453 59.7502 49.466C59.6885 49.0866 59.4773 48.7471 59.1625 48.5221C58.8484 48.297 58.4566 48.2049 58.0736 48.266L48.757 49.7524C48.3739 49.8135 47.9816 49.7214 47.6675 49.4964C47.3527 49.2714 47.1415 48.9318 47.0798 48.5525C47.0181 48.1731 47.111 47.7851 47.3385 47.4736C47.5654 47.1622 47.9087 46.9527 48.2917 46.8916L52.7743 46.1765C53.1579 46.1153 53.5011 45.9057 53.7285 45.5939C53.9559 45.2821 54.0488 44.8935 53.9871 44.5137C53.9253 44.1339 53.7139 43.7939 53.3992 43.5685C53.0844 43.3432 52.6921 43.251 52.3085 43.3122L45.6577 44.3733C45.2747 44.4344 44.883 44.3423 44.5682 44.1173C44.2541 43.8922 44.0428 43.5527 43.9811 43.1733C43.9194 42.7939 44.0123 42.4059 44.2393 42.0945C44.4667 41.783 44.8095 41.5736 45.1925 41.5125L57.935 39.4796C58.3138 39.4163 58.7014 39.428 59.0754 39.5141C59.4495 39.6002 59.8025 39.759 60.1145 39.9811C60.426 40.2034 60.6903 40.4847 60.8918 40.8086C61.0927 41.1327 61.2271 41.4931 61.2866 41.8689Z" fill="#FFF5D9"/>
<path d="M39.8071 46.4466L31.809 47.7227C30.4019 47.9472 29.445 49.259 29.6716 50.6527L29.6722 50.6563C29.8989 52.05 31.2232 52.9978 32.6304 52.7733L40.6285 51.4973C42.0356 51.2728 42.9926 49.961 42.7659 48.5672L42.7654 48.5637C42.5387 47.17 41.2142 46.2221 39.8071 46.4466Z" fill="#E6E6E6"/>
<path d="M40.6821 51.8494L32.6876 53.1248C31.9168 53.2478 31.1283 53.0624 30.4955 52.6096C29.8627 52.1567 29.4375 51.4734 29.3133 50.71C29.1892 49.9466 29.3763 49.1656 29.8335 48.5388C30.2907 47.912 30.9806 47.4909 31.7514 47.3679L39.7459 46.0924C40.5166 45.9695 41.3051 46.1547 41.9379 46.6076C42.5706 47.0605 42.996 47.7438 43.1202 48.5072C43.2443 49.2706 43.057 50.0517 42.5999 50.6784C42.1427 51.3052 41.4528 51.7264 40.6821 51.8494ZM31.8668 48.0777C31.2861 48.1704 30.7664 48.4877 30.4219 48.9599C30.0774 49.4321 29.9365 50.0205 30.03 50.5956C30.1235 51.1708 30.4439 51.6856 30.9207 52.0268C31.3974 52.368 31.9914 52.5076 32.5721 52.415L40.5666 51.1395C41.1473 51.0468 41.667 50.7295 42.0115 50.2573C42.356 49.7851 42.497 49.1967 42.4034 48.6216C42.3099 48.0464 41.9895 47.5316 41.5128 47.1904C41.036 46.8492 40.442 46.7096 39.8613 46.8022L31.8668 48.0777Z" fill="#333333"/>
<path d="M41.4129 45.2904C42.0422 45.19 42.4704 44.6032 42.3691 43.9799C42.2677 43.3565 41.6751 42.9326 41.0458 43.033C40.4164 43.1334 39.9884 43.7202 40.0898 44.3435C40.1912 44.9669 40.7835 45.3908 41.4129 45.2904Z" fill="#ACACAC"/>
<path opacity="0.5" d="M38.9583 45.4753C39.2731 45.4251 39.4872 45.1316 39.4365 44.8197C39.3858 44.5079 39.0895 44.2958 38.7747 44.3461C38.4598 44.3963 38.2457 44.6898 38.2964 45.0016C38.3471 45.3135 38.6435 45.5255 38.9583 45.4753Z" fill="#C5D1D1"/>
<path d="M5.06686 51.0649C5.57572 50.9838 5.92177 50.5094 5.83981 50.0054C5.75784 49.5013 5.2789 49.1585 4.77004 49.2397C4.26118 49.3209 3.91508 49.7953 3.99705 50.2994C4.07901 50.8034 4.558 51.1461 5.06686 51.0649Z" fill="white"/>
<path opacity="0.5" d="M4.07779 52.3768C4.3332 52.336 4.50694 52.0979 4.4658 51.8449C4.42465 51.5919 4.18421 51.4199 3.92881 51.4606C3.6734 51.5014 3.49966 51.7395 3.54081 51.9925C3.58195 52.2455 3.82238 52.4175 4.07779 52.3768Z" fill="white"/>
<path d="M9.43698 50.2437C9.94584 50.1625 10.2919 49.688 10.2099 49.184C10.128 48.68 9.64902 48.3372 9.14016 48.4184C8.6313 48.4996 8.28519 48.974 8.36716 49.478C8.44912 49.982 8.92812 50.3248 9.43698 50.2437Z" fill="white"/>
<path d="M8.27282 56.6553C9.67996 56.4308 10.6369 55.119 10.4102 53.7253C10.1836 52.3316 8.85918 51.3837 7.45204 51.6082C6.04496 51.8327 5.08804 53.1445 5.31468 54.5382C5.54134 55.932 6.86573 56.8798 8.27282 56.6553Z" fill="white"/>
<path opacity="0.7" d="M10.2926 53.5874C10.3755 54.1358 10.2762 54.6959 10.0097 55.1834C9.7431 55.671 9.32371 56.0595 8.81473 56.2902C8.30577 56.5211 7.73485 56.5817 7.18806 56.463C6.64126 56.3444 6.14823 56.0528 5.78338 55.6323C6.21407 55.8034 6.68392 55.8544 7.14186 55.7797C7.81754 55.6719 8.42237 55.3026 8.82322 54.7531C9.22407 54.2037 9.38806 53.519 9.27922 52.8497C9.20705 52.3956 9.01066 51.9697 8.71141 51.6185C9.12439 51.7831 9.48718 52.0511 9.76435 52.3962C10.0415 52.7414 10.2235 53.1518 10.2926 53.5874Z" fill="#ACACAC"/>
<path d="M8.28898 57.0498C7.71349 57.1417 7.12344 57.0624 6.59343 56.8221C6.06341 56.5817 5.61731 56.1911 5.31142 55.6996C5.00554 55.2081 4.85371 54.6378 4.87503 54.0608C4.89642 53.4839 5.09003 52.9261 5.4314 52.4582C5.77276 51.9902 6.24663 51.633 6.79296 51.4317C7.33928 51.2305 7.93362 51.1942 8.50079 51.3275C9.06791 51.4608 9.58244 51.7577 9.97923 52.1807C10.376 52.6036 10.6373 53.1336 10.73 53.7036C10.8543 54.468 10.667 55.2499 10.2091 55.8775C9.75138 56.505 9.06065 56.9267 8.28898 57.0498ZM7.46763 51.9992C7.03372 52.0684 6.63031 52.2635 6.30842 52.56C5.98658 52.8563 5.7607 53.2406 5.65936 53.6642C5.55808 54.0878 5.58588 54.5316 5.73934 54.9396C5.89279 55.3475 6.16494 55.7011 6.52138 55.9558C6.87783 56.2104 7.30252 56.3546 7.74175 56.3702C8.18097 56.3857 8.61492 56.2718 8.98876 56.0428C9.3626 55.814 9.6595 55.4804 9.8419 55.0844C10.0242 54.6883 10.0839 54.2476 10.0133 53.8179C9.91878 53.2426 9.59758 52.7279 9.12031 52.3869C8.64304 52.0459 8.04861 51.9065 7.46763 51.9992Z" fill="#333333"/>
<path d="M15.5536 55.4937C16.9607 55.2692 17.9177 53.9574 17.691 52.5636C17.4644 51.1699 16.1399 50.2221 14.7329 50.4465C13.3257 50.671 12.3688 51.9829 12.5954 53.3766C12.8221 54.7703 14.1465 55.7182 15.5536 55.4937Z" fill="white"/>
<path d="M23.1947 54.2744C24.6018 54.0499 25.5588 52.7381 25.3322 51.3444C25.1055 49.9507 23.7811 49.0028 22.374 49.2273C20.9668 49.4518 20.0099 50.7637 20.2366 52.1574C20.4632 53.5511 21.7876 54.4989 23.1947 54.2744Z" fill="#EEF0F1"/>
<path d="M23.5693 54.6121C22.9938 54.7039 22.4037 54.6246 21.8737 54.3843C21.3437 54.144 20.8976 53.7533 20.5917 53.2618C20.2858 52.7704 20.134 52.2001 20.1553 51.6231C20.1767 51.0461 20.3703 50.4884 20.7117 50.0204C21.053 49.5524 21.5269 49.1952 22.0732 48.994C22.6196 48.7927 23.2139 48.7565 23.7811 48.8897C24.3482 49.0231 24.8627 49.32 25.2595 49.7429C25.6563 50.1658 25.9175 50.6958 26.0102 51.2658C26.1345 52.0302 25.9472 52.8122 25.4895 53.4397C25.0316 54.0672 24.3409 54.489 23.5693 54.6121ZM22.7479 49.5614C22.314 49.6306 21.9106 49.8258 21.5887 50.1222C21.2668 50.4186 21.041 50.8029 20.9396 51.2265C20.8384 51.6501 20.8662 52.0939 21.0196 52.5018C21.1731 52.9097 21.4453 53.2633 21.8017 53.518C22.1582 53.7727 22.5828 53.9169 23.022 53.9324C23.4612 53.9479 23.8952 53.834 24.269 53.6051C24.6429 53.3763 24.9398 53.0427 25.1222 52.6466C25.3045 52.2506 25.3642 51.8098 25.2936 51.3802C25.1991 50.8049 24.8779 50.2902 24.4006 49.9492C23.9233 49.6082 23.3289 49.4687 22.7479 49.5614Z" fill="#333333"/>
<path d="M30.5418 57.2755L38.6797 55.9772C38.9116 55.9402 39.1488 55.996 39.3392 56.1322C39.5296 56.2685 39.6575 56.4741 39.6948 56.7037L29.8083 58.2811C29.771 58.0514 29.8272 57.8164 29.9648 57.6278C30.1024 57.4393 30.3099 57.3125 30.5418 57.2755Z" fill="#F5F6FE"/>
<path d="M19.6385 59.015L27.7764 57.7167C28.0083 57.6797 28.2455 57.7355 28.4359 57.8717C28.6263 58.008 28.7542 58.2136 28.7916 58.4432L18.905 60.0206C18.8676 59.7909 18.9239 59.5559 19.0615 59.3673C19.1991 59.1788 19.4066 59.052 19.6385 59.015Z" fill="#F5F6FE"/>
<path d="M60.2751 53.8754L6.166 62.5081C5.31067 62.6446 4.43565 62.4389 3.7334 61.9363C3.03115 61.4338 2.55925 60.6755 2.42148 59.8283L1.01948 51.2071C0.881702 50.3599 1.08933 49.4931 1.59674 48.7976C2.10415 48.102 2.86971 47.6346 3.72505 47.4982L57.8342 38.8654C58.6893 38.729 59.5643 38.9347 60.267 39.4372C60.9691 39.9397 61.4407 40.6981 61.5785 41.5453L62.9799 50.163C63.0488 50.5827 63.0332 51.0117 62.9344 51.4255C62.8356 51.8393 62.6556 52.2298 62.4045 52.5745C62.1535 52.9193 61.8359 53.2117 61.4704 53.4349C61.1054 53.6581 60.6989 53.8078 60.2751 53.8754ZM3.83932 48.2009C3.17408 48.307 2.57863 48.6706 2.18398 49.2116C1.78933 49.7526 1.62785 50.4266 1.73501 51.0856L3.13644 59.7033C3.2436 60.3623 3.61061 60.952 4.15681 61.3429C4.703 61.7338 5.3836 61.8938 6.04884 61.7876L60.1579 53.1549C60.8235 53.0487 61.4187 52.6852 61.8134 52.1442C62.2081 51.6032 62.3694 50.9292 62.2622 50.2702L60.8619 41.6596C60.7548 41.0007 60.388 40.4108 59.8417 40.02C59.2955 39.6291 58.6151 39.4691 57.9496 39.5753L3.83932 48.2009Z" fill="#333333"/>
<path opacity="0.7" d="M17.7123 52.6879C17.8026 53.2406 17.7071 53.8074 17.4405 54.3011C17.1739 54.7949 16.751 55.1883 16.2368 55.4209C15.7226 55.6535 15.1455 55.7124 14.5942 55.5886C14.0429 55.4648 13.5479 55.1651 13.1852 54.7356C13.6159 54.9067 14.0858 54.9577 14.5437 54.883C15.2194 54.7752 15.8242 54.4059 16.2251 53.8564C16.6259 53.3069 16.79 52.6222 16.6811 51.9529C16.6089 51.4989 16.4125 51.0731 16.1133 50.7217C16.5292 50.8837 16.8954 51.1502 17.1758 51.4949C17.4562 51.8397 17.6412 52.2508 17.7123 52.6879Z" fill="#ACACAC"/>
<path d="M15.9291 55.8308C15.3536 55.9227 14.7636 55.8434 14.2336 55.6031C13.7036 55.3627 13.2574 54.9721 12.9516 54.4806C12.6457 53.9891 12.4939 53.4188 12.5152 52.8418C12.5366 52.2649 12.7302 51.7071 13.0715 51.2392C13.4129 50.7712 13.8868 50.414 14.4331 50.2127C14.9794 50.0115 15.5738 49.9752 16.1409 50.1085C16.708 50.2418 17.2226 50.5387 17.6194 50.9617C18.0162 51.3846 18.2774 51.9146 18.3701 52.4846C18.4944 53.249 18.3071 54.0309 17.8493 54.6585C17.3915 55.286 16.7008 55.7077 15.9291 55.8308ZM15.1078 50.7802C14.6739 50.8494 14.2704 51.0445 13.9486 51.341C13.6267 51.6373 13.4008 52.0217 13.2995 52.4452C13.1982 52.8688 13.2261 53.3126 13.3795 53.7206C13.5329 54.1285 13.8051 54.4821 14.1616 54.7368C14.518 54.9914 14.9427 55.1356 15.3819 55.1512C15.8211 55.1667 16.2551 55.0528 16.6289 54.8239C17.0027 54.595 17.2996 54.2614 17.482 53.8654C17.6644 53.4693 17.7241 53.0286 17.6535 52.5989C17.5589 52.0236 17.2378 51.5089 16.7604 51.1679C16.2832 50.8269 15.6887 50.6875 15.1078 50.7802Z" fill="#333333"/>
<path d="M54.1103 3.17952C53.9517 3.17982 53.7964 3.13343 53.6641 3.04623C53.532 2.95904 53.429 2.83496 53.368 2.6897C53.3071 2.54445 53.2911 2.38456 53.322 2.23028C53.3529 2.076 53.4294 1.93428 53.5417 1.82306C53.6538 1.71185 53.7971 1.63614 53.9529 1.60553C54.1085 1.57492 54.2699 1.59078 54.4166 1.65111C54.5633 1.71144 54.6885 1.81352 54.7766 1.94442C54.8645 2.07532 54.9115 2.22916 54.9112 2.38644C54.9108 2.59666 54.8261 2.79814 54.6761 2.94679C54.5261 3.09543 54.3227 3.17911 54.1103 3.17952ZM54.1103 1.89571C54.0124 1.89541 53.9164 1.92393 53.8348 1.97767C53.7531 2.03141 53.6894 2.10795 53.6515 2.19759C53.6138 2.28723 53.6038 2.38595 53.6229 2.48124C53.6417 2.57654 53.6887 2.66412 53.758 2.7329C53.8273 2.80169 53.9155 2.84857 54.0117 2.86763C54.1078 2.88669 54.2075 2.87706 54.2982 2.83996C54.3887 2.80287 54.4661 2.73997 54.5208 2.65924C54.5752 2.5785 54.6043 2.48357 54.6043 2.38644C54.6043 2.25655 54.5524 2.13196 54.4599 2.03998C54.3673 1.94799 54.2415 1.89611 54.1103 1.89571Z" fill="#333333"/>
<path d="M59.5342 21.5522H4.70221C3.09655 21.5522 1.79492 22.8415 1.79492 24.4319V33.1642C1.79492 34.7546 3.09655 36.0439 4.70221 36.0439H59.5342C61.1399 36.0439 62.4413 34.7546 62.4413 33.1642V24.4319C62.4413 22.8415 61.1399 21.5522 59.5342 21.5522Z" fill="white"/>
<path d="M59.5342 4.61597H4.70221C3.09655 4.61597 1.79492 5.90521 1.79492 7.49559V16.2279C1.79492 17.8183 3.09655 19.1076 4.70221 19.1076H59.5342C61.1399 19.1076 62.4413 17.8183 62.4413 16.2279V7.49559C62.4413 5.90521 61.1399 4.61597 59.5342 4.61597Z" fill="white"/>
<path d="M59.968 21.4138H5.13629C3.53063 21.4138 2.229 22.7031 2.229 24.2934V33.0259C2.229 34.6162 3.53063 35.9055 5.13629 35.9055H59.968C61.5738 35.9055 62.8757 34.6162 62.8757 33.0259V24.2934C62.8757 22.7031 61.5738 21.4138 59.968 21.4138Z" fill="white"/>
<path d="M59.7996 4.37183H4.96783C3.36218 4.37183 2.06055 5.66113 2.06055 7.25145V15.9839C2.06055 17.5742 3.36218 18.8635 4.96783 18.8635H59.7996C61.4053 18.8635 62.7073 17.5742 62.7073 15.9839V7.25145C62.7073 5.66113 61.4053 4.37183 59.7996 4.37183Z" fill="white"/>
<path opacity="0.2" d="M27.4502 21.3943C27.4502 23.6826 26.5324 25.8771 24.8988 27.4953C23.2652 29.1133 21.0495 30.0223 18.7392 30.0223H2.4061H2.11572V28.25H16.0896C18.1134 28.2506 20.0739 27.5512 21.6325 26.2726C23.1911 24.994 24.25 23.2164 24.6264 21.2468H27.4466C27.4502 21.2936 27.4502 21.3619 27.4502 21.3943Z" fill="#FFCD41"/>
<path d="M6.99324 30.9388C8.41846 30.9388 9.57388 29.7945 9.57388 28.3827C9.57388 26.9711 8.41846 25.8267 6.99324 25.8267C5.56802 25.8267 4.4126 26.9711 4.4126 28.3827C4.4126 29.7945 5.56802 30.9388 6.99324 30.9388Z" fill="#999999"/>
<path d="M14.731 30.9388C16.1563 30.9388 17.3117 29.7945 17.3117 28.3827C17.3117 26.9711 16.1563 25.8267 14.731 25.8267C13.3058 25.8267 12.1504 26.9711 12.1504 28.3827C12.1504 29.7945 13.3058 30.9388 14.731 30.9388Z" fill="#828282"/>
<path opacity="0.2" d="M62.3696 24.191V32.9198C62.3696 33.6826 62.0636 34.4141 61.5194 34.9535C60.9746 35.4928 60.2361 35.7959 59.4663 35.7959H43.369C42.9811 35.7959 42.609 35.6432 42.3346 35.3715C42.0603 35.0998 41.9062 34.7313 41.9062 34.347C41.9062 33.9628 42.0603 33.5943 42.3346 33.3226C42.609 33.0509 42.9811 32.8983 43.369 32.8983H58.1704C58.5583 32.8983 58.9303 32.7456 59.2049 32.4739C59.4789 32.2022 59.633 31.8337 59.633 31.4494C59.633 31.0652 59.4789 30.6967 59.2049 30.425C58.9303 30.1533 58.5583 30.0006 58.1704 30.0006H48.7337C48.5416 30.0006 48.3512 29.9631 48.1735 29.8903C47.9963 29.8176 47.8351 29.7108 47.6991 29.5763C47.5632 29.4418 47.4554 29.2821 47.3822 29.1063C47.3084 28.9305 47.2705 28.7421 47.2705 28.5518C47.2705 28.3616 47.3084 28.1732 47.3822 27.9974C47.4554 27.8216 47.5632 27.6619 47.6991 27.5273C47.8351 27.3928 47.9963 27.2861 48.1735 27.2133C48.3512 27.1405 48.5416 27.103 48.7337 27.103H53.2669C53.6554 27.103 54.0279 26.9502 54.3025 26.6782C54.5771 26.4061 54.7311 26.0371 54.7311 25.6524C54.7311 25.2677 54.5771 24.8987 54.3025 24.6267C54.0279 24.3547 53.6554 24.2018 53.2669 24.2018H46.5375C46.1496 24.2018 45.7776 24.0492 45.5035 23.7775C45.2289 23.5057 45.0749 23.1372 45.0749 22.753C45.0749 22.3688 45.2289 22.0003 45.5035 21.7286C45.7776 21.4569 46.1496 21.3042 46.5375 21.3042H59.4586C59.8416 21.3033 60.2207 21.3773 60.5745 21.5221C60.9284 21.6669 61.2503 21.8796 61.5205 22.1478C61.7912 22.4161 62.0053 22.7348 62.1511 23.0855C62.2969 23.4361 62.3712 23.8118 62.3696 24.191Z" fill="#FFCD41"/>
<path opacity="0.2" d="M62.3696 7.2545V15.9833C62.3696 16.746 62.0636 17.4776 61.5194 18.017C60.9746 18.5563 60.2361 18.8593 59.4663 18.8593H43.369C42.9811 18.8593 42.609 18.7067 42.3346 18.435C42.0603 18.1633 41.9062 17.7948 41.9062 17.4105C41.9062 17.0263 42.0603 16.6578 42.3346 16.386C42.609 16.1143 42.9811 15.9617 43.369 15.9617H58.1704C58.5583 15.9617 58.9303 15.8091 59.2049 15.5374C59.4789 15.2657 59.633 14.8972 59.633 14.5129C59.633 14.1286 59.4789 13.7601 59.2049 13.4884C58.9303 13.2167 58.5583 13.0641 58.1704 13.0641H48.7337C48.5416 13.0641 48.3512 13.0266 48.1735 12.9538C47.9963 12.881 47.8351 12.7743 47.6991 12.6397C47.5632 12.5052 47.4554 12.3455 47.3822 12.1698C47.3084 11.994 47.2705 11.8056 47.2705 11.6153C47.2705 11.4251 47.3084 11.2366 47.3822 11.0609C47.4554 10.8851 47.5632 10.7254 47.6991 10.5908C47.8351 10.4563 47.9963 10.3496 48.1735 10.2768C48.3512 10.204 48.5416 10.1665 48.7337 10.1665H53.2669C53.6554 10.1665 54.0279 10.0137 54.3025 9.74165C54.5771 9.46962 54.7311 9.10062 54.7311 8.71588C54.7311 8.33118 54.5771 7.96219 54.3025 7.69016C54.0279 7.41813 53.6554 7.2653 53.2669 7.2653H46.5375C46.1496 7.2653 45.7776 7.11263 45.5035 6.84093C45.2289 6.56922 45.0749 6.20072 45.0749 5.81652C45.0749 5.43226 45.2289 5.06376 45.5035 4.79206C45.7776 4.52035 46.1496 4.36768 46.5375 4.36768H59.4586C59.8416 4.36676 60.2207 4.44078 60.5745 4.58559C60.9284 4.73036 61.2503 4.94303 61.5205 5.2113C61.7912 5.47963 62.0053 5.79826 62.1511 6.14894C62.2969 6.49957 62.3712 6.87532 62.3696 7.2545Z" fill="#FFCD41"/>
<path d="M34.3745 21.7539H32.0153C31.919 21.7539 31.8267 21.716 31.7587 21.6486C31.6906 21.5812 31.6523 21.4898 31.6523 21.3944C31.6523 21.299 31.6906 21.2076 31.7587 21.1402C31.8267 21.0727 31.919 21.0349 32.0153 21.0349H34.3745C34.4708 21.0349 34.5631 21.0727 34.6312 21.1402C34.6992 21.2076 34.7375 21.299 34.7375 21.3944C34.7375 21.4898 34.6992 21.5812 34.6312 21.6486C34.5631 21.716 34.4708 21.7539 34.3745 21.7539Z" fill="#333333"/>
<path d="M59.5851 36.2493H4.75685C3.89049 36.2493 3.05957 35.9085 2.447 35.3017C1.83438 34.6949 1.49023 33.8719 1.49023 33.0138V24.2778C1.49023 23.4197 1.83438 22.5967 2.447 21.9899C3.05957 21.3832 3.89049 21.0422 4.75685 21.0422H29.4597C29.556 21.0422 29.6483 21.0801 29.7164 21.1475C29.7844 21.215 29.8227 21.3064 29.8227 21.4017C29.8227 21.4971 29.7844 21.5885 29.7164 21.656C29.6483 21.7234 29.556 21.7613 29.4597 21.7613H4.75685C4.08298 21.7613 3.43673 22.0264 2.9603 22.4983C2.48382 22.9703 2.21611 23.6104 2.21611 24.2778V33.0066C2.21611 33.674 2.48382 34.3141 2.9603 34.786C3.43673 35.258 4.08298 35.5231 4.75685 35.5231H59.5851C60.2592 35.5231 60.9052 35.258 61.3817 34.786C61.8583 34.3141 62.1257 33.674 62.1257 33.0066V24.2778C62.1257 23.6104 61.8583 22.9703 61.3817 22.4983C60.9052 22.0264 60.2592 21.7613 59.5851 21.7613H38.8749C38.7786 21.7613 38.6863 21.7234 38.6182 21.656C38.5501 21.5885 38.5119 21.4971 38.5119 21.4017C38.5119 21.3064 38.5501 21.215 38.6182 21.1475C38.6863 21.0801 38.7786 21.0422 38.8749 21.0422H59.5889C60.4551 21.0422 61.286 21.3832 61.8984 21.9899C62.5115 22.5967 62.8554 23.4197 62.8554 24.2778V33.0066C62.8565 33.4324 62.7723 33.8542 62.6083 34.2478C62.4443 34.6414 62.2038 34.9991 61.9001 35.3004C61.5963 35.6016 61.2354 35.8405 60.8381 36.0034C60.4408 36.1662 60.0148 36.2498 59.5851 36.2493Z" fill="#333333"/>
<path d="M59.5851 19.3126H4.75685C3.89049 19.3126 3.05957 18.9718 2.447 18.365C1.83438 17.7582 1.49023 16.9352 1.49023 16.0771V7.34109C1.49023 6.48298 1.83438 5.66002 2.447 5.05322C3.05957 4.44648 3.89049 4.10556 4.75685 4.10556L39.8152 4.10547C39.9114 4.10547 40.0037 4.14335 40.0718 4.21077C40.1399 4.27819 40.1781 4.36965 40.1781 4.46498C40.1781 4.56036 40.1399 4.65176 40.0718 4.71919C40.0037 4.78661 39.9114 4.82449 39.8152 4.82449L4.75685 4.82458C4.08298 4.82458 3.43673 5.08974 2.9603 5.56164C2.48382 6.03359 2.21611 6.67369 2.21611 7.34109V16.0699C2.21611 16.7373 2.48382 17.3774 2.9603 17.8494C3.43673 18.3213 4.08298 18.5864 4.75685 18.5864H59.5851C60.2592 18.5864 60.9052 18.3213 61.3817 17.8494C61.8583 17.3774 62.1257 16.7373 62.1257 16.0699V7.34109C62.1257 6.67369 61.8583 6.03359 61.3817 5.56164C60.9052 5.08974 60.2592 4.82458 59.5851 4.82458H38.8749C38.7786 4.82458 38.6863 4.7867 38.6182 4.71927C38.5502 4.65185 38.5119 4.56045 38.5119 4.46507C38.5119 4.36974 38.5502 4.27828 38.6182 4.21086C38.6863 4.14344 38.7786 4.10556 38.8749 4.10556H59.5889C60.4551 4.10556 61.286 4.44648 61.8985 5.05322C62.5115 5.66002 62.8554 6.48298 62.8554 7.34109V16.0699C62.8565 16.4957 62.7723 16.9175 62.6083 17.3111C62.4443 17.7048 62.2039 18.0624 61.9001 18.3637C61.5964 18.665 61.2354 18.9039 60.8381 19.0667C60.4408 19.2295 60.0149 19.3131 59.5851 19.3126Z" fill="#333333"/>
<path d="M36.5415 21.7542H35.6918C35.5955 21.7542 35.5031 21.7163 35.435 21.6489C35.3669 21.5815 35.3286 21.49 35.3286 21.3945C35.3286 21.2992 35.3669 21.2077 35.435 21.1402C35.5031 21.0728 35.5955 21.0349 35.6918 21.0349H36.5415C36.6378 21.0349 36.7301 21.0728 36.7982 21.1402C36.8663 21.2077 36.9046 21.2992 36.9046 21.3945C36.9046 21.49 36.8663 21.5815 36.7982 21.6489C36.7301 21.7163 36.6378 21.7542 36.5415 21.7542Z" fill="#333333"/>
<path d="M7.05145 31.3023C6.46838 31.303 5.89824 31.1324 5.41306 30.812C4.92793 30.4917 4.54962 30.036 4.32598 29.5027C4.10235 28.9693 4.04347 28.3822 4.15677 27.8158C4.27013 27.2493 4.5505 26.7288 4.96254 26.3202C5.37459 25.9116 5.89972 25.6332 6.47152 25.5202C7.04331 25.4073 7.63607 25.4649 8.17485 25.6858C8.71357 25.9066 9.1741 26.2807 9.4981 26.7609C9.82211 27.241 9.99506 27.8055 9.99506 28.3831C9.99506 29.1566 9.68503 29.8986 9.1331 30.4459C8.58117 30.9933 7.83246 31.3013 7.05145 31.3023ZM7.05145 26.1865C6.61184 26.1858 6.18185 26.3143 5.81603 26.5558C5.45015 26.7973 5.16488 27.1409 4.99633 27.543C4.82773 27.9452 4.78343 28.3879 4.86905 28.815C4.95462 29.2421 5.16626 29.6345 5.47711 29.9424C5.78802 30.2503 6.18416 30.4599 6.61536 30.5447C7.04661 30.6295 7.49355 30.5856 7.89954 30.4186C8.30559 30.2517 8.65249 29.9691 8.89626 29.6067C9.14009 29.2444 9.26985 28.8185 9.26913 28.3831C9.26814 27.8008 9.03422 27.2426 8.61854 26.8309C8.20286 26.4192 7.63932 26.1874 7.05145 26.1865Z" fill="#333333"/>
<path d="M14.7897 31.3023C14.2067 31.303 13.6365 31.1324 13.1513 30.812C12.6662 30.4917 12.2879 30.036 12.0643 29.5027C11.8406 28.9693 11.7818 28.3822 11.8951 27.8158C12.0084 27.2493 12.2888 26.7288 12.7008 26.3202C13.1129 25.9116 13.638 25.6332 14.2098 25.5202C14.7816 25.4073 15.3744 25.4649 15.9131 25.6858C16.4518 25.9066 16.9124 26.2807 17.2364 26.7609C17.5604 27.241 17.7333 27.8055 17.7333 28.3831C17.7333 29.1566 17.4233 29.8986 16.8714 30.4459C16.3195 30.9933 15.5707 31.3013 14.7897 31.3023ZM14.7897 26.1865C14.3501 26.1858 13.9201 26.3143 13.5543 26.5558C13.1884 26.7973 12.9032 27.1409 12.7346 27.543C12.566 27.9452 12.5217 28.3879 12.6073 28.815C12.6929 29.2421 12.9045 29.6345 13.2154 29.9424C13.5263 30.2503 13.9224 30.4599 14.3536 30.5447C14.7849 30.6295 15.2318 30.5856 15.6378 30.4186C16.0439 30.2517 16.3908 29.9691 16.6345 29.6067C16.8784 29.2444 17.0081 28.8185 17.0074 28.3831C17.0064 27.8008 16.7725 27.2426 16.3568 26.8309C15.9411 26.4192 15.3776 26.1874 14.7897 26.1865Z" fill="#333333"/>
<path d="M22.5284 30.9388C23.9536 30.9388 25.109 29.7945 25.109 28.3827C25.109 26.9711 23.9536 25.8267 22.5284 25.8267C21.1031 25.8267 19.9478 26.9711 19.9478 28.3827C19.9478 29.7945 21.1031 30.9388 22.5284 30.9388Z" fill="#828282"/>
<path d="M22.8436 31.3307C22.2614 31.3272 21.6932 31.1529 21.2108 30.8298C20.7284 30.5067 20.3535 30.0494 20.1334 29.5155C19.9132 28.9815 19.8576 28.395 19.9737 27.8298C20.0897 27.2646 20.3722 26.7462 20.7855 26.3398C21.1987 25.9336 21.7242 25.6576 22.2956 25.5468C22.8671 25.436 23.4589 25.4954 23.9963 25.7174C24.5337 25.9394 24.9927 26.3141 25.3153 26.7942C25.6379 27.2744 25.8097 27.8384 25.8089 28.4151C25.8085 28.7997 25.7313 29.1804 25.5818 29.5354C25.4324 29.8903 25.2136 30.2125 24.9381 30.4834C24.6625 30.7543 24.3356 30.9686 23.9762 31.114C23.6167 31.2594 23.2319 31.3331 22.8436 31.3307ZM22.8436 26.215C22.4051 26.2186 21.9774 26.3506 21.6145 26.5945C21.2516 26.8384 20.9697 27.1832 20.8044 27.5856C20.639 27.9879 20.5976 28.4297 20.6854 28.8553C20.7731 29.2809 20.9861 29.6712 21.2974 29.9772C21.6088 30.2831 22.0046 30.4908 22.435 30.5743C22.8654 30.6577 23.3111 30.6131 23.716 30.4461C24.1208 30.279 24.4666 29.997 24.7099 29.6356C24.9532 29.2742 25.083 28.8495 25.0831 28.4151C25.0831 28.1247 25.025 27.8371 24.9123 27.569C24.7995 27.3009 24.6343 27.0575 24.426 26.853C24.2179 26.6485 23.9708 26.4868 23.6992 26.3773C23.4276 26.2678 23.1368 26.2126 22.8436 26.215Z" fill="#333333"/>
<path d="M56.2424 25.8555H33.6231C32.1978 25.8555 31.0425 26.9998 31.0425 28.4116V28.4152C31.0425 29.8268 32.1978 30.9712 33.6231 30.9712H56.2424C57.6681 30.9712 58.8232 29.8268 58.8232 28.4152V28.4116C58.8232 26.9998 57.6681 25.8555 56.2424 25.8555Z" fill="#E6E6E6"/>
<path d="M55.9345 31.3161H33.3221C32.9266 31.3298 32.5324 31.2645 32.1629 31.1241C31.7934 30.9837 31.4563 30.771 31.1716 30.4987C30.8869 30.2265 30.6605 29.9002 30.5058 29.5394C30.3512 29.1786 30.2715 28.7907 30.2715 28.3987C30.2715 28.0067 30.3512 27.6187 30.5058 27.258C30.6605 26.8971 30.8869 26.5709 31.1716 26.2986C31.4563 26.0263 31.7934 25.8137 32.1629 25.6732C32.5324 25.5328 32.9266 25.4675 33.3221 25.4813H55.9345C56.3301 25.4675 56.7241 25.5328 57.0934 25.6732C57.4631 25.8137 57.7999 26.0263 58.085 26.2986C58.3695 26.5709 58.5962 26.8971 58.7508 27.258C58.9054 27.6187 58.9852 28.0067 58.9852 28.3987C58.9852 28.7907 58.9054 29.1786 58.7508 29.5394C58.5962 29.9002 58.3695 30.2265 58.085 30.4987C57.7999 30.771 57.4631 30.9837 57.0934 31.1241C56.7241 31.2645 56.3301 31.3298 55.9345 31.3161ZM33.3221 26.2003C33.0231 26.1883 32.7247 26.2363 32.4449 26.3414C32.165 26.4465 31.9096 26.6065 31.6937 26.8118C31.4779 27.0171 31.3061 27.2635 31.1888 27.5362C31.0715 27.8089 31.0111 28.1023 31.0111 28.3987C31.0111 28.6951 31.0715 28.9885 31.1888 29.2612C31.3061 29.5338 31.4779 29.7803 31.6937 29.9856C31.9096 30.1909 32.165 30.3509 32.4449 30.4559C32.7247 30.561 33.0231 30.6091 33.3221 30.5971H55.9345C56.2333 30.6091 56.5315 30.561 56.8116 30.4559C57.0912 30.3509 57.347 30.1909 57.5627 29.9856C57.7785 29.7803 57.9501 29.5338 58.0679 29.2612C58.1851 28.9885 58.2456 28.6951 58.2456 28.3987C58.2456 28.1023 58.1851 27.8089 58.0679 27.5362C57.9501 27.2635 57.7785 27.0171 57.5627 26.8118C57.347 26.6065 57.0912 26.4465 56.8116 26.3414C56.5315 26.2363 56.2333 26.1883 55.9345 26.2003H33.3221Z" fill="#333333"/>
<path d="M42.1996 24.443C42.8369 24.443 43.3536 23.9311 43.3536 23.2997C43.3536 22.6683 42.8369 22.1565 42.1996 22.1565C41.5622 22.1565 41.0454 22.6683 41.0454 23.2997C41.0454 23.9311 41.5622 24.443 42.1996 24.443Z" fill="#ACACAC"/>
<path opacity="0.5" d="M39.7464 24.238C40.0652 24.238 40.3237 23.9819 40.3237 23.6661C40.3237 23.3503 40.0652 23.0942 39.7464 23.0942C39.4275 23.0942 39.1689 23.3503 39.1689 23.6661C39.1689 23.9819 39.4275 24.238 39.7464 24.238Z" fill="#ACACAC"/>
<path d="M29.4639 26.172C30.3339 26.172 31.0392 25.4735 31.0392 24.6118C31.0392 23.75 30.3339 23.0515 29.4639 23.0515C28.594 23.0515 27.8887 23.75 27.8887 24.6118C27.8887 25.4735 28.594 26.172 29.4639 26.172Z" fill="white"/>
<path opacity="0.5" d="M28.7968 28.3835C29.232 28.3835 29.5848 28.0341 29.5848 27.603C29.5848 27.1719 29.232 26.8225 28.7968 26.8225C28.3616 26.8225 28.0088 27.1719 28.0088 27.603C28.0088 28.0341 28.3616 28.3835 28.7968 28.3835Z" fill="white"/>
<g clip-path="url(#clip0_3529_79430)">
<path d="M38.65 9.49809C38.6306 9.72205 38.5967 9.94602 38.5338 10.1652C38.4613 10.413 38.3693 10.656 38.2387 10.88C38.1323 11.0611 38.0113 11.2326 37.8807 11.3947C37.7742 11.5281 37.6533 11.652 37.5227 11.7616C37.3775 11.8855 37.2178 11.9951 37.0582 12.0952C36.8453 12.2286 36.6131 12.3191 36.3712 12.3954C36.1631 12.4621 35.9502 12.5145 35.7325 12.5383C35.5583 12.5526 35.389 12.5812 35.2148 12.5765C34.8084 12.5669 34.4117 12.4907 34.0343 12.343C33.7392 12.2286 33.4634 12.0809 33.2118 11.8855C33.0908 11.7902 32.9747 11.6949 32.8683 11.5853C32.6409 11.3565 32.4474 11.104 32.2925 10.8276C32.1377 10.5512 32.0216 10.2653 31.9539 9.95555C31.9151 9.784 31.9055 9.60292 31.8813 9.42661C31.8716 9.33607 31.8619 9.24553 31.8668 9.15975C31.8813 8.93102 31.9006 8.70705 31.9539 8.47832C32.0264 8.16858 32.1377 7.87313 32.2974 7.59674C32.4038 7.4109 32.5296 7.23935 32.6602 7.0678C32.728 6.97726 32.8054 6.89625 32.8876 6.81524C33.0763 6.63416 33.2892 6.4769 33.5166 6.34824C33.7779 6.20052 34.044 6.07185 34.3343 6.00038C34.4988 5.95749 34.6729 5.92413 34.8423 5.9003C34.9874 5.87648 35.1326 5.87648 35.2777 5.86218C35.6793 5.86218 36.0712 5.93366 36.4437 6.06709C36.7969 6.19575 37.1356 6.3673 37.4259 6.61033C37.5614 6.7247 37.6968 6.84383 37.8226 6.97726C37.9726 7.13928 38.1032 7.32036 38.2097 7.51573C38.3306 7.7254 38.4371 7.93984 38.5 8.17334C38.5532 8.36872 38.5967 8.56409 38.6306 8.76423C38.65 8.88337 38.6548 9.01203 38.6596 9.13593C38.6548 9.24553 38.6596 9.37419 38.65 9.49809Z" fill="#3C3C3B"/>
<path d="M31.3043 9.22666C31.3092 9.65076 31.2318 10.0558 31.0866 10.4513C30.9657 10.7754 30.8012 11.0756 30.5738 11.3377C30.4431 11.4854 30.3125 11.6379 30.1625 11.7665C29.8335 12.062 29.4416 12.2574 29.0207 12.3908C28.8078 12.4575 28.5949 12.5147 28.3724 12.5338C28.2756 12.5433 28.1789 12.5528 28.0821 12.5576C27.966 12.5623 27.845 12.5671 27.7289 12.5576C27.5499 12.5433 27.3709 12.5242 27.1919 12.4909C26.8774 12.4289 26.5774 12.3098 26.2919 12.1573C26.0791 12.0429 25.8807 11.9095 25.6968 11.7523C25.4549 11.5426 25.242 11.2996 25.0679 11.0375C24.826 10.6753 24.6615 10.2845 24.5744 9.86044C24.5211 9.59358 24.497 9.32673 24.5115 9.05987C24.526 8.80255 24.5647 8.54522 24.6373 8.29266C24.7389 7.9448 24.8985 7.62076 25.0969 7.31578C25.2372 7.10134 25.4017 6.90597 25.5952 6.73918C25.8033 6.5581 26.0258 6.40085 26.2726 6.27218C26.5629 6.11493 26.8725 6.00533 27.1919 5.92909C27.3176 5.90049 27.4483 5.88143 27.5789 5.8719C27.7434 5.86237 27.9079 5.84808 28.0676 5.86237C28.2563 5.8719 28.4498 5.90049 28.6336 5.93385C28.9626 5.99103 29.2626 6.11493 29.5577 6.27218C29.7658 6.38179 29.9593 6.51521 30.1432 6.6677C30.419 6.89644 30.6415 7.16806 30.8205 7.47303C30.9753 7.73512 31.0963 8.01151 31.1689 8.30696C31.2173 8.50233 31.2608 8.70248 31.2705 8.90262C31.2947 9.01222 31.2995 9.11705 31.3043 9.22666Z" fill="#3C3C3B"/>
<path d="M27.2466 16.8101C27.0047 16.6385 26.7676 16.467 26.516 16.2906C26.816 15.8332 27.1692 15.4043 27.5708 15.0278C28.0546 14.6085 28.5723 14.213 29.1674 13.9557C31.1946 13.0121 33.6428 13.3219 35.3603 14.7372C35.8829 15.166 36.3522 15.6569 36.715 16.2239C36.7344 16.2573 36.7344 16.2763 36.7054 16.2954C36.4876 16.4527 36.2699 16.6052 36.0522 16.7624C36.0135 16.791 36.0038 16.7815 35.9796 16.7481C35.7909 16.5051 35.6313 16.2478 35.4184 16.0238C34.9346 15.4996 34.3491 15.0755 33.696 14.7801C33.0089 14.456 32.2348 14.3321 31.4752 14.3321C29.7528 14.3845 28.1514 15.39 27.2466 16.8101Z" fill="#3C3C3B"/>
<path d="M29.7661 9.23111C29.6935 11.9473 25.8858 11.7091 26.06 9.03573C26.3551 6.56256 29.708 6.7484 29.7661 9.23111Z" fill="#999999"/>
<path d="M33.4041 9.23097C33.4766 11.9472 37.2843 11.7089 37.1101 9.03559C36.815 6.56718 33.4621 6.74826 33.4041 9.23097Z" fill="#999999"/>
</g>
<defs>
<clipPath id="clip0_3529_79430">
<rect width="14.1421" height="10.9554" fill="white" transform="translate(24.5127 5.85229)"/>
</clipPath>
</defs>
</svg>
