<svg width="22" height="22" viewBox="0 0 22 22" fill="none" xmlns="http://www.w3.org/2000/svg">
<path d="M12.8333 1.83331H5.5C5.01377 1.83331 4.54746 2.02647 4.20364 2.37028C3.85982 2.7141 3.66667 3.18042 3.66667 3.66665V18.3333C3.66667 18.8195 3.85982 19.2859 4.20364 19.6297C4.54746 19.9735 5.01377 20.1666 5.5 20.1666H16.5C16.9862 20.1666 17.4525 19.9735 17.7964 19.6297C18.1402 19.2859 18.3333 18.8195 18.3333 18.3333V7.33331L12.8333 1.83331Z" stroke="#4D24E1" stroke-width="2" stroke-linecap="round" stroke-linejoin="round"/>
<path d="M12.8333 1.83331V7.33331H18.3333" stroke="#4D24E1" stroke-width="2" stroke-linecap="round" stroke-linejoin="round"/>
<path d="M14.6667 11.9167H7.33333" stroke="#4D24E1" stroke-width="2" stroke-linecap="round" stroke-linejoin="round"/>
<path d="M14.6667 15.5833H7.33333" stroke="#4D24E1" stroke-width="2" stroke-linecap="round" stroke-linejoin="round"/>
<path d="M9.16666 8.25H8.25H7.33333" stroke="#4D24E1" stroke-width="2" stroke-linecap="round" stroke-linejoin="round"/>
</svg>
