<svg width="73" height="72" viewBox="0 0 73 72" fill="none" xmlns="http://www.w3.org/2000/svg">
<g clip-path="url(#clip0_3482_19410)">
<circle cx="36.3065" cy="36" r="28.832" fill="#FFCD41" stroke="white" stroke-width="4"/>
<path d="M39.4341 14.3437L39.0532 44.959H34.1606L33.7505 14.3437H39.4341ZM33.5747 54.2754C33.5747 53.3965 33.8384 52.6543 34.3657 52.0488C34.9126 51.4434 35.7134 51.1406 36.7681 51.1406C37.8032 51.1406 38.5942 51.4434 39.1411 52.0488C39.7075 52.6543 39.9907 53.3965 39.9907 54.2754C39.9907 55.1152 39.7075 55.8379 39.1411 56.4434C38.5942 57.0488 37.8032 57.3516 36.7681 57.3516C35.7134 57.3516 34.9126 57.0488 34.3657 56.4434C33.8384 55.8379 33.5747 55.1152 33.5747 54.2754Z" fill="white"/>
</g>
<defs>
<clipPath id="clip0_3482_19410">
<rect width="72" height="72" fill="white" transform="translate(0.306519)"/>
</clipPath>
</defs>
</svg>
